<?xml version="1.0" encoding="utf-8"?>
<svg xmlns="http://www.w3.org/2000/svg" xmlns:xlink="http://www.w3.org/1999/xlink" width="600" height="400" viewBox="0 0 2400 1600">
<defs>
  <clipPath id="clip930">
    <rect x="0" y="0" width="2400" height="1600"/>
  </clipPath>
</defs>
<path clip-path="url(#clip930)" d="
M0 1600 L2400 1600 L2400 0 L0 0  Z
  " fill="#ffffff" fill-rule="evenodd" fill-opacity="1"/>
<defs>
  <clipPath id="clip931">
    <rect x="480" y="0" width="1681" height="1600"/>
  </clipPath>
</defs>
<path clip-path="url(#clip930)" d="
M188.612 1423.18 L2352.76 1423.18 L2352.76 47.2441 L188.612 47.2441  Z
  " fill="#ffffff" fill-rule="evenodd" fill-opacity="1"/>
<defs>
  <clipPath id="clip932">
    <rect x="188" y="47" width="2165" height="1377"/>
  </clipPath>
</defs>
<polyline clip-path="url(#clip932)" style="stroke:#000000; stroke-width:2; stroke-opacity:0.1; fill:none" points="
  188.612,1423.18 188.612,47.2441 
  "/>
<polyline clip-path="url(#clip932)" style="stroke:#000000; stroke-width:2; stroke-opacity:0.1; fill:none" points="
  729.648,1423.18 729.648,47.2441 
  "/>
<polyline clip-path="url(#clip932)" style="stroke:#000000; stroke-width:2; stroke-opacity:0.1; fill:none" points="
  1270.68,1423.18 1270.68,47.2441 
  "/>
<polyline clip-path="url(#clip932)" style="stroke:#000000; stroke-width:2; stroke-opacity:0.1; fill:none" points="
  1811.72,1423.18 1811.72,47.2441 
  "/>
<polyline clip-path="url(#clip932)" style="stroke:#000000; stroke-width:2; stroke-opacity:0.1; fill:none" points="
  2352.76,1423.18 2352.76,47.2441 
  "/>
<polyline clip-path="url(#clip932)" style="stroke:#000000; stroke-width:2; stroke-opacity:0.1; fill:none" points="
  188.612,1384.24 2352.76,1384.24 
  "/>
<polyline clip-path="url(#clip932)" style="stroke:#000000; stroke-width:2; stroke-opacity:0.1; fill:none" points="
  188.612,1059.73 2352.76,1059.73 
  "/>
<polyline clip-path="url(#clip932)" style="stroke:#000000; stroke-width:2; stroke-opacity:0.1; fill:none" points="
  188.612,735.212 2352.76,735.212 
  "/>
<polyline clip-path="url(#clip932)" style="stroke:#000000; stroke-width:2; stroke-opacity:0.1; fill:none" points="
  188.612,410.699 2352.76,410.699 
  "/>
<polyline clip-path="url(#clip932)" style="stroke:#000000; stroke-width:2; stroke-opacity:0.1; fill:none" points="
  188.612,86.1857 2352.76,86.1857 
  "/>
<polyline clip-path="url(#clip930)" style="stroke:#000000; stroke-width:4; stroke-opacity:1; fill:none" points="
  188.612,1423.18 2352.76,1423.18 
  "/>
<polyline clip-path="url(#clip930)" style="stroke:#000000; stroke-width:4; stroke-opacity:1; fill:none" points="
  188.612,1423.18 188.612,47.2441 
  "/>
<polyline clip-path="url(#clip930)" style="stroke:#000000; stroke-width:4; stroke-opacity:1; fill:none" points="
  188.612,1423.18 188.612,1406.67 
  "/>
<polyline clip-path="url(#clip930)" style="stroke:#000000; stroke-width:4; stroke-opacity:1; fill:none" points="
  729.648,1423.18 729.648,1406.67 
  "/>
<polyline clip-path="url(#clip930)" style="stroke:#000000; stroke-width:4; stroke-opacity:1; fill:none" points="
  1270.68,1423.18 1270.68,1406.67 
  "/>
<polyline clip-path="url(#clip930)" style="stroke:#000000; stroke-width:4; stroke-opacity:1; fill:none" points="
  1811.72,1423.18 1811.72,1406.67 
  "/>
<polyline clip-path="url(#clip930)" style="stroke:#000000; stroke-width:4; stroke-opacity:1; fill:none" points="
  2352.76,1423.18 2352.76,1406.67 
  "/>
<polyline clip-path="url(#clip930)" style="stroke:#000000; stroke-width:4; stroke-opacity:1; fill:none" points="
  188.612,1384.24 214.582,1384.24 
  "/>
<polyline clip-path="url(#clip930)" style="stroke:#000000; stroke-width:4; stroke-opacity:1; fill:none" points="
  188.612,1059.73 214.582,1059.73 
  "/>
<polyline clip-path="url(#clip930)" style="stroke:#000000; stroke-width:4; stroke-opacity:1; fill:none" points="
  188.612,735.212 214.582,735.212 
  "/>
<polyline clip-path="url(#clip930)" style="stroke:#000000; stroke-width:4; stroke-opacity:1; fill:none" points="
  188.612,410.699 214.582,410.699 
  "/>
<polyline clip-path="url(#clip930)" style="stroke:#000000; stroke-width:4; stroke-opacity:1; fill:none" points="
  188.612,86.1857 214.582,86.1857 
  "/>
<path clip-path="url(#clip930)" d="M 0 0 M188.612 1445.17 Q185.001 1445.17 183.172 1448.74 Q181.367 1452.28 181.367 1459.41 Q181.367 1466.51 183.172 1470.08 Q185.001 1473.62 188.612 1473.62 Q192.246 1473.62 194.052 1470.08 Q195.88 1466.51 195.88 1459.41 Q195.88 1452.28 194.052 1448.74 Q192.246 1445.17 188.612 1445.17 M188.612 1441.47 Q194.422 1441.47 197.478 1446.07 Q200.556 1450.66 200.556 1459.41 Q200.556 1468.13 197.478 1472.74 Q194.422 1477.32 188.612 1477.32 Q182.802 1477.32 179.723 1472.74 Q176.668 1468.13 176.668 1459.41 Q176.668 1450.66 179.723 1446.07 Q182.802 1441.47 188.612 1441.47 Z" fill="#000000" fill-rule="evenodd" fill-opacity="1" /><path clip-path="url(#clip930)" d="M 0 0 M706.419 1442.09 L724.775 1442.09 L724.775 1446.03 L710.701 1446.03 L710.701 1454.5 Q711.72 1454.15 712.738 1453.99 Q713.757 1453.8 714.775 1453.8 Q720.562 1453.8 723.942 1456.98 Q727.322 1460.15 727.322 1465.56 Q727.322 1471.14 723.849 1474.24 Q720.377 1477.32 714.058 1477.32 Q711.882 1477.32 709.613 1476.95 Q707.368 1476.58 704.961 1475.84 L704.961 1471.14 Q707.044 1472.28 709.266 1472.83 Q711.488 1473.39 713.965 1473.39 Q717.97 1473.39 720.308 1471.28 Q722.646 1469.18 722.646 1465.56 Q722.646 1461.95 720.308 1459.85 Q717.97 1457.74 713.965 1457.74 Q712.09 1457.74 710.215 1458.16 Q708.363 1458.57 706.419 1459.45 L706.419 1442.09 Z" fill="#000000" fill-rule="evenodd" fill-opacity="1" /><path clip-path="url(#clip930)" d="M 0 0 M742.391 1445.17 Q738.78 1445.17 736.951 1448.74 Q735.146 1452.28 735.146 1459.41 Q735.146 1466.51 736.951 1470.08 Q738.78 1473.62 742.391 1473.62 Q746.025 1473.62 747.831 1470.08 Q749.659 1466.51 749.659 1459.41 Q749.659 1452.28 747.831 1448.74 Q746.025 1445.17 742.391 1445.17 M742.391 1441.47 Q748.201 1441.47 751.257 1446.07 Q754.335 1450.66 754.335 1459.41 Q754.335 1468.13 751.257 1472.74 Q748.201 1477.32 742.391 1477.32 Q736.581 1477.32 733.502 1472.74 Q730.447 1468.13 730.447 1459.41 Q730.447 1450.66 733.502 1446.07 Q736.581 1441.47 742.391 1441.47 Z" fill="#000000" fill-rule="evenodd" fill-opacity="1" /><path clip-path="url(#clip930)" d="M 0 0 M1234.05 1472.72 L1241.69 1472.72 L1241.69 1446.35 L1233.38 1448.02 L1233.38 1443.76 L1241.64 1442.09 L1246.32 1442.09 L1246.32 1472.72 L1253.96 1472.72 L1253.96 1476.65 L1234.05 1476.65 L1234.05 1472.72 Z" fill="#000000" fill-rule="evenodd" fill-opacity="1" /><path clip-path="url(#clip930)" d="M 0 0 M1269.03 1445.17 Q1265.42 1445.17 1263.59 1448.74 Q1261.78 1452.28 1261.78 1459.41 Q1261.78 1466.51 1263.59 1470.08 Q1265.42 1473.62 1269.03 1473.62 Q1272.66 1473.62 1274.47 1470.08 Q1276.3 1466.51 1276.3 1459.41 Q1276.3 1452.28 1274.47 1448.74 Q1272.66 1445.17 1269.03 1445.17 M1269.03 1441.47 Q1274.84 1441.47 1277.89 1446.07 Q1280.97 1450.66 1280.97 1459.41 Q1280.97 1468.13 1277.89 1472.74 Q1274.84 1477.32 1269.03 1477.32 Q1263.22 1477.32 1260.14 1472.74 Q1257.08 1468.13 1257.08 1459.41 Q1257.08 1450.66 1260.14 1446.07 Q1263.22 1441.47 1269.03 1441.47 Z" fill="#000000" fill-rule="evenodd" fill-opacity="1" /><path clip-path="url(#clip930)" d="M 0 0 M1296.04 1445.17 Q1292.43 1445.17 1290.6 1448.74 Q1288.8 1452.28 1288.8 1459.41 Q1288.8 1466.51 1290.6 1470.08 Q1292.43 1473.62 1296.04 1473.62 Q1299.68 1473.62 1301.48 1470.08 Q1303.31 1466.51 1303.31 1459.41 Q1303.31 1452.28 1301.48 1448.74 Q1299.68 1445.17 1296.04 1445.17 M1296.04 1441.47 Q1301.85 1441.47 1304.91 1446.07 Q1307.99 1450.66 1307.99 1459.41 Q1307.99 1468.13 1304.91 1472.74 Q1301.85 1477.32 1296.04 1477.32 Q1290.23 1477.32 1287.15 1472.74 Q1284.1 1468.13 1284.1 1459.41 Q1284.1 1450.66 1287.15 1446.07 Q1290.23 1441.47 1296.04 1441.47 Z" fill="#000000" fill-rule="evenodd" fill-opacity="1" /><path clip-path="url(#clip930)" d="M 0 0 M1775.59 1472.72 L1783.22 1472.72 L1783.22 1446.35 L1774.91 1448.02 L1774.91 1443.76 L1783.18 1442.09 L1787.85 1442.09 L1787.85 1472.72 L1795.49 1472.72 L1795.49 1476.65 L1775.59 1476.65 L1775.59 1472.72 Z" fill="#000000" fill-rule="evenodd" fill-opacity="1" /><path clip-path="url(#clip930)" d="M 0 0 M1800.61 1442.09 L1818.97 1442.09 L1818.97 1446.03 L1804.89 1446.03 L1804.89 1454.5 Q1805.91 1454.15 1806.93 1453.99 Q1807.95 1453.8 1808.97 1453.8 Q1814.75 1453.8 1818.13 1456.98 Q1821.51 1460.15 1821.51 1465.56 Q1821.51 1471.14 1818.04 1474.24 Q1814.57 1477.32 1808.25 1477.32 Q1806.07 1477.32 1803.8 1476.95 Q1801.56 1476.58 1799.15 1475.84 L1799.15 1471.14 Q1801.23 1472.28 1803.46 1472.83 Q1805.68 1473.39 1808.16 1473.39 Q1812.16 1473.39 1814.5 1471.28 Q1816.84 1469.18 1816.84 1465.56 Q1816.84 1461.95 1814.5 1459.85 Q1812.16 1457.74 1808.16 1457.74 Q1806.28 1457.74 1804.41 1458.16 Q1802.55 1458.57 1800.61 1459.45 L1800.61 1442.09 Z" fill="#000000" fill-rule="evenodd" fill-opacity="1" /><path clip-path="url(#clip930)" d="M 0 0 M1836.58 1445.17 Q1832.97 1445.17 1831.14 1448.74 Q1829.34 1452.28 1829.34 1459.41 Q1829.34 1466.51 1831.14 1470.08 Q1832.97 1473.62 1836.58 1473.62 Q1840.22 1473.62 1842.02 1470.08 Q1843.85 1466.51 1843.85 1459.41 Q1843.85 1452.28 1842.02 1448.74 Q1840.22 1445.17 1836.58 1445.17 M1836.58 1441.47 Q1842.39 1441.47 1845.45 1446.07 Q1848.53 1450.66 1848.53 1459.41 Q1848.53 1468.13 1845.45 1472.74 Q1842.39 1477.32 1836.58 1477.32 Q1830.77 1477.32 1827.69 1472.74 Q1824.64 1468.13 1824.64 1459.41 Q1824.64 1450.66 1827.69 1446.07 Q1830.77 1441.47 1836.58 1441.47 Z" fill="#000000" fill-rule="evenodd" fill-opacity="1" /><path clip-path="url(#clip930)" d="M 0 0 M2320.39 1472.72 L2336.71 1472.72 L2336.71 1476.65 L2314.77 1476.65 L2314.77 1472.72 Q2317.43 1469.96 2322.02 1465.33 Q2326.62 1460.68 2327.8 1459.34 Q2330.05 1456.81 2330.93 1455.08 Q2331.83 1453.32 2331.83 1451.63 Q2331.83 1448.87 2329.89 1447.14 Q2327.96 1445.4 2324.86 1445.4 Q2322.66 1445.4 2320.21 1446.17 Q2317.78 1446.93 2315 1448.48 L2315 1443.76 Q2317.83 1442.62 2320.28 1442.05 Q2322.73 1441.47 2324.77 1441.47 Q2330.14 1441.47 2333.33 1444.15 Q2336.53 1446.84 2336.53 1451.33 Q2336.53 1453.46 2335.72 1455.38 Q2334.93 1457.28 2332.83 1459.87 Q2332.25 1460.54 2329.14 1463.76 Q2326.04 1466.95 2320.39 1472.72 Z" fill="#000000" fill-rule="evenodd" fill-opacity="1" /><path clip-path="url(#clip930)" d="M 0 0 M2351.78 1445.17 Q2348.17 1445.17 2346.34 1448.74 Q2344.54 1452.28 2344.54 1459.41 Q2344.54 1466.51 2346.34 1470.08 Q2348.17 1473.62 2351.78 1473.62 Q2355.42 1473.62 2357.22 1470.08 Q2359.05 1466.51 2359.05 1459.41 Q2359.05 1452.28 2357.22 1448.74 Q2355.42 1445.17 2351.78 1445.17 M2351.78 1441.47 Q2357.59 1441.47 2360.65 1446.07 Q2363.73 1450.66 2363.73 1459.41 Q2363.73 1468.13 2360.65 1472.74 Q2357.59 1477.32 2351.78 1477.32 Q2345.97 1477.32 2342.89 1472.74 Q2339.84 1468.13 2339.84 1459.41 Q2339.84 1450.66 2342.89 1446.07 Q2345.97 1441.47 2351.78 1441.47 Z" fill="#000000" fill-rule="evenodd" fill-opacity="1" /><path clip-path="url(#clip930)" d="M 0 0 M2378.8 1445.17 Q2375.19 1445.17 2373.36 1448.74 Q2371.55 1452.28 2371.55 1459.41 Q2371.55 1466.51 2373.36 1470.08 Q2375.19 1473.62 2378.8 1473.62 Q2382.43 1473.62 2384.24 1470.08 Q2386.07 1466.51 2386.07 1459.41 Q2386.07 1452.28 2384.24 1448.74 Q2382.43 1445.17 2378.8 1445.17 M2378.8 1441.47 Q2384.61 1441.47 2387.66 1446.07 Q2390.74 1450.66 2390.74 1459.41 Q2390.74 1468.13 2387.66 1472.74 Q2384.61 1477.32 2378.8 1477.32 Q2372.99 1477.32 2369.91 1472.74 Q2366.85 1468.13 2366.85 1459.41 Q2366.85 1450.66 2369.91 1446.07 Q2372.99 1441.47 2378.8 1441.47 Z" fill="#000000" fill-rule="evenodd" fill-opacity="1" /><path clip-path="url(#clip930)" d="M 0 0 M152.668 1370.04 Q149.056 1370.04 147.228 1373.6 Q145.422 1377.14 145.422 1384.27 Q145.422 1391.38 147.228 1394.94 Q149.056 1398.49 152.668 1398.49 Q156.302 1398.49 158.107 1394.94 Q159.936 1391.38 159.936 1384.27 Q159.936 1377.14 158.107 1373.6 Q156.302 1370.04 152.668 1370.04 M152.668 1366.33 Q158.478 1366.33 161.533 1370.94 Q164.612 1375.52 164.612 1384.27 Q164.612 1393 161.533 1397.61 Q158.478 1402.19 152.668 1402.19 Q146.857 1402.19 143.779 1397.61 Q140.723 1393 140.723 1384.27 Q140.723 1375.52 143.779 1370.94 Q146.857 1366.33 152.668 1366.33 Z" fill="#000000" fill-rule="evenodd" fill-opacity="1" /><path clip-path="url(#clip930)" d="M 0 0 M95.2605 1073.07 L111.58 1073.07 L111.58 1077.01 L89.6355 1077.01 L89.6355 1073.07 Q92.2975 1070.32 96.8808 1065.69 Q101.487 1061.03 102.668 1059.69 Q104.913 1057.17 105.793 1055.43 Q106.696 1053.67 106.696 1051.98 Q106.696 1049.23 104.751 1047.49 Q102.83 1045.76 99.728 1045.76 Q97.529 1045.76 95.0753 1046.52 Q92.6447 1047.28 89.867 1048.83 L89.867 1044.11 Q92.691 1042.98 95.1447 1042.4 Q97.5984 1041.82 99.6354 1041.82 Q105.006 1041.82 108.2 1044.51 Q111.395 1047.19 111.395 1051.68 Q111.395 1053.81 110.584 1055.73 Q109.797 1057.63 107.691 1060.22 Q107.112 1060.89 104.01 1064.11 Q100.909 1067.31 95.2605 1073.07 Z" fill="#000000" fill-rule="evenodd" fill-opacity="1" /><path clip-path="url(#clip930)" d="M 0 0 M116.696 1042.45 L135.052 1042.45 L135.052 1046.38 L120.978 1046.38 L120.978 1054.85 Q121.996 1054.51 123.015 1054.34 Q124.033 1054.16 125.052 1054.16 Q130.839 1054.16 134.219 1057.33 Q137.598 1060.5 137.598 1065.92 Q137.598 1071.5 134.126 1074.6 Q130.654 1077.68 124.334 1077.68 Q122.158 1077.68 119.89 1077.31 Q117.645 1076.94 115.237 1076.19 L115.237 1071.5 Q117.321 1072.63 119.543 1073.19 Q121.765 1073.74 124.242 1073.74 Q128.246 1073.74 130.584 1071.63 Q132.922 1069.53 132.922 1065.92 Q132.922 1062.31 130.584 1060.2 Q128.246 1058.09 124.242 1058.09 Q122.367 1058.09 120.492 1058.51 Q118.64 1058.93 116.696 1059.81 L116.696 1042.45 Z" fill="#000000" fill-rule="evenodd" fill-opacity="1" /><path clip-path="url(#clip930)" d="M 0 0 M152.668 1045.52 Q149.056 1045.52 147.228 1049.09 Q145.422 1052.63 145.422 1059.76 Q145.422 1066.87 147.228 1070.43 Q149.056 1073.97 152.668 1073.97 Q156.302 1073.97 158.107 1070.43 Q159.936 1066.87 159.936 1059.76 Q159.936 1052.63 158.107 1049.09 Q156.302 1045.52 152.668 1045.52 M152.668 1041.82 Q158.478 1041.82 161.533 1046.43 Q164.612 1051.01 164.612 1059.76 Q164.612 1068.49 161.533 1073.09 Q158.478 1077.68 152.668 1077.68 Q146.857 1077.68 143.779 1073.09 Q140.723 1068.49 140.723 1059.76 Q140.723 1051.01 143.779 1046.43 Q146.857 1041.82 152.668 1041.82 Z" fill="#000000" fill-rule="evenodd" fill-opacity="1" /><path clip-path="url(#clip930)" d="M 0 0 M89.6818 717.932 L108.038 717.932 L108.038 721.867 L93.9642 721.867 L93.9642 730.339 Q94.9827 729.992 96.0012 729.83 Q97.0197 729.645 98.0382 729.645 Q103.825 729.645 107.205 732.816 Q110.584 735.987 110.584 741.404 Q110.584 746.983 107.112 750.085 Q103.64 753.163 97.3206 753.163 Q95.1447 753.163 92.8762 752.793 Q90.6309 752.423 88.2235 751.682 L88.2235 746.983 Q90.3068 748.117 92.529 748.673 Q94.7512 749.228 97.2281 749.228 Q101.233 749.228 103.571 747.122 Q105.909 745.015 105.909 741.404 Q105.909 737.793 103.571 735.687 Q101.233 733.58 97.2281 733.58 Q95.3531 733.58 93.4781 733.997 Q91.6262 734.413 89.6818 735.293 L89.6818 717.932 Z" fill="#000000" fill-rule="evenodd" fill-opacity="1" /><path clip-path="url(#clip930)" d="M 0 0 M125.654 721.011 Q122.043 721.011 120.214 724.575 Q118.408 728.117 118.408 735.247 Q118.408 742.353 120.214 745.918 Q122.043 749.46 125.654 749.46 Q129.288 749.46 131.094 745.918 Q132.922 742.353 132.922 735.247 Q132.922 728.117 131.094 724.575 Q129.288 721.011 125.654 721.011 M125.654 717.307 Q131.464 717.307 134.52 721.913 Q137.598 726.497 137.598 735.247 Q137.598 743.973 134.52 748.58 Q131.464 753.163 125.654 753.163 Q119.844 753.163 116.765 748.58 Q113.709 743.973 113.709 735.247 Q113.709 726.497 116.765 721.913 Q119.844 717.307 125.654 717.307 Z" fill="#000000" fill-rule="evenodd" fill-opacity="1" /><path clip-path="url(#clip930)" d="M 0 0 M152.668 721.011 Q149.056 721.011 147.228 724.575 Q145.422 728.117 145.422 735.247 Q145.422 742.353 147.228 745.918 Q149.056 749.46 152.668 749.46 Q156.302 749.46 158.107 745.918 Q159.936 742.353 159.936 735.247 Q159.936 728.117 158.107 724.575 Q156.302 721.011 152.668 721.011 M152.668 717.307 Q158.478 717.307 161.533 721.913 Q164.612 726.497 164.612 735.247 Q164.612 743.973 161.533 748.58 Q158.478 753.163 152.668 753.163 Q146.857 753.163 143.779 748.58 Q140.723 743.973 140.723 735.247 Q140.723 726.497 143.779 721.913 Q146.857 717.307 152.668 717.307 Z" fill="#000000" fill-rule="evenodd" fill-opacity="1" /><path clip-path="url(#clip930)" d="M 0 0 M89.3577 393.419 L111.58 393.419 L111.58 395.41 L99.0336 427.979 L94.1494 427.979 L105.955 397.354 L89.3577 397.354 L89.3577 393.419 Z" fill="#000000" fill-rule="evenodd" fill-opacity="1" /><path clip-path="url(#clip930)" d="M 0 0 M116.696 393.419 L135.052 393.419 L135.052 397.354 L120.978 397.354 L120.978 405.826 Q121.996 405.479 123.015 405.317 Q124.033 405.132 125.052 405.132 Q130.839 405.132 134.219 408.303 Q137.598 411.474 137.598 416.891 Q137.598 422.47 134.126 425.571 Q130.654 428.65 124.334 428.65 Q122.158 428.65 119.89 428.28 Q117.645 427.909 115.237 427.169 L115.237 422.47 Q117.321 423.604 119.543 424.159 Q121.765 424.715 124.242 424.715 Q128.246 424.715 130.584 422.608 Q132.922 420.502 132.922 416.891 Q132.922 413.28 130.584 411.173 Q128.246 409.067 124.242 409.067 Q122.367 409.067 120.492 409.484 Q118.64 409.9 116.696 410.78 L116.696 393.419 Z" fill="#000000" fill-rule="evenodd" fill-opacity="1" /><path clip-path="url(#clip930)" d="M 0 0 M152.668 396.498 Q149.056 396.498 147.228 400.062 Q145.422 403.604 145.422 410.734 Q145.422 417.84 147.228 421.405 Q149.056 424.946 152.668 424.946 Q156.302 424.946 158.107 421.405 Q159.936 417.84 159.936 410.734 Q159.936 403.604 158.107 400.062 Q156.302 396.498 152.668 396.498 M152.668 392.794 Q158.478 392.794 161.533 397.4 Q164.612 401.984 164.612 410.734 Q164.612 419.46 161.533 424.067 Q158.478 428.65 152.668 428.65 Q146.857 428.65 143.779 424.067 Q140.723 419.46 140.723 410.734 Q140.723 401.984 143.779 397.4 Q146.857 392.794 152.668 392.794 Z" fill="#000000" fill-rule="evenodd" fill-opacity="1" /><path clip-path="url(#clip930)" d="M 0 0 M63.6634 99.5305 L71.3023 99.5305 L71.3023 73.1649 L62.9921 74.8316 L62.9921 70.5723 L71.256 68.9057 L75.9319 68.9057 L75.9319 99.5305 L83.5707 99.5305 L83.5707 103.466 L63.6634 103.466 L63.6634 99.5305 Z" fill="#000000" fill-rule="evenodd" fill-opacity="1" /><path clip-path="url(#clip930)" d="M 0 0 M98.6401 71.9844 Q95.029 71.9844 93.2003 75.5492 Q91.3948 79.0908 91.3948 86.2204 Q91.3948 93.3268 93.2003 96.8916 Q95.029 100.433 98.6401 100.433 Q102.274 100.433 104.08 96.8916 Q105.909 93.3268 105.909 86.2204 Q105.909 79.0908 104.08 75.5492 Q102.274 71.9844 98.6401 71.9844 M98.6401 68.2807 Q104.45 68.2807 107.506 72.8871 Q110.584 77.4704 110.584 86.2204 Q110.584 94.9472 107.506 99.5537 Q104.45 104.137 98.6401 104.137 Q92.8299 104.137 89.7512 99.5537 Q86.6957 94.9472 86.6957 86.2204 Q86.6957 77.4704 89.7512 72.8871 Q92.8299 68.2807 98.6401 68.2807 Z" fill="#000000" fill-rule="evenodd" fill-opacity="1" /><path clip-path="url(#clip930)" d="M 0 0 M125.654 71.9844 Q122.043 71.9844 120.214 75.5492 Q118.408 79.0908 118.408 86.2204 Q118.408 93.3268 120.214 96.8916 Q122.043 100.433 125.654 100.433 Q129.288 100.433 131.094 96.8916 Q132.922 93.3268 132.922 86.2204 Q132.922 79.0908 131.094 75.5492 Q129.288 71.9844 125.654 71.9844 M125.654 68.2807 Q131.464 68.2807 134.52 72.8871 Q137.598 77.4704 137.598 86.2204 Q137.598 94.9472 134.52 99.5537 Q131.464 104.137 125.654 104.137 Q119.844 104.137 116.765 99.5537 Q113.709 94.9472 113.709 86.2204 Q113.709 77.4704 116.765 72.8871 Q119.844 68.2807 125.654 68.2807 Z" fill="#000000" fill-rule="evenodd" fill-opacity="1" /><path clip-path="url(#clip930)" d="M 0 0 M152.668 71.9844 Q149.056 71.9844 147.228 75.5492 Q145.422 79.0908 145.422 86.2204 Q145.422 93.3268 147.228 96.8916 Q149.056 100.433 152.668 100.433 Q156.302 100.433 158.107 96.8916 Q159.936 93.3268 159.936 86.2204 Q159.936 79.0908 158.107 75.5492 Q156.302 71.9844 152.668 71.9844 M152.668 68.2807 Q158.478 68.2807 161.533 72.8871 Q164.612 77.4704 164.612 86.2204 Q164.612 94.9472 161.533 99.5537 Q158.478 104.137 152.668 104.137 Q146.857 104.137 143.779 99.5537 Q140.723 94.9472 140.723 86.2204 Q140.723 77.4704 143.779 72.8871 Q146.857 68.2807 152.668 68.2807 Z" fill="#000000" fill-rule="evenodd" fill-opacity="1" /><path clip-path="url(#clip930)" d="M 0 0 M1269.74 1510.27 L1269.74 1520.4 L1281.81 1520.4 L1281.81 1524.95 L1269.74 1524.95 L1269.74 1544.3 Q1269.74 1548.66 1270.92 1549.9 Q1272.13 1551.14 1275.79 1551.14 L1281.81 1551.14 L1281.81 1556.04 L1275.79 1556.04 Q1269.01 1556.04 1266.43 1553.53 Q1263.86 1550.98 1263.86 1544.3 L1263.86 1524.95 L1259.56 1524.95 L1259.56 1520.4 L1263.86 1520.4 L1263.86 1510.27 L1269.74 1510.27 Z" fill="#000000" fill-rule="evenodd" fill-opacity="1" /><polyline clip-path="url(#clip932)" style="stroke:#009af9; stroke-width:4; stroke-opacity:1; fill:none" points="
  188.612,86.1857 190.778,88.8795 192.945,93.2945 195.111,100.477 197.277,112.023 199.444,130.231 201.61,158.102 203.776,198.894 205.942,254.903 208.109,325.566 
  210.275,406.123 212.441,488.38 214.608,564.093 216.774,627.845 218.94,677.961 221.107,715.501 223.273,742.732 225.439,762.02 227.606,775.492 229.772,784.828 
  231.938,791.247 234.104,795.621 236.271,798.626 238.437,800.674 240.603,802.072 242.77,803.022 244.936,803.667 247.102,804.107 249.269,804.406 251.435,804.609 
  253.601,804.747 255.768,804.841 257.934,804.905 260.1,804.948 262.267,804.978 264.433,804.998 266.599,805.011 268.765,805.021 270.932,805.027 273.098,805.031 
  275.264,805.034 277.431,805.036 279.597,805.037 281.763,805.038 283.93,805.039 286.096,805.039 288.262,805.04 290.429,805.04 292.595,805.04 294.761,805.04 
  296.927,805.04 299.094,805.04 301.26,805.04 303.426,805.04 305.593,805.04 307.759,805.04 309.925,805.04 312.092,805.04 314.258,805.04 316.424,805.04 
  318.591,805.04 320.757,805.04 322.923,805.04 325.089,805.04 327.256,805.04 329.422,805.04 331.588,805.04 333.755,805.04 335.921,805.04 338.087,805.04 
  340.254,805.04 342.42,805.04 344.586,805.04 346.753,805.04 348.919,805.04 351.085,805.04 353.252,805.04 355.418,805.04 357.584,805.04 359.75,805.04 
  361.917,805.04 364.083,805.04 366.249,805.04 368.416,805.04 370.582,805.04 372.748,805.04 374.915,805.04 377.081,805.04 379.247,805.04 381.414,805.04 
  383.58,805.04 385.746,805.04 387.912,805.04 390.079,805.04 392.245,805.04 394.411,805.04 396.578,805.04 398.744,805.04 400.91,805.04 403.077,805.04 
  405.243,805.04 407.409,805.04 409.576,805.04 411.742,805.04 413.908,805.04 416.075,805.04 418.241,805.04 420.407,805.04 422.573,805.04 424.74,805.04 
  426.906,805.04 429.072,805.04 431.239,805.04 433.405,805.04 435.571,805.04 437.738,805.04 439.904,805.04 442.07,805.04 444.237,805.04 446.403,805.04 
  448.569,805.04 450.735,805.04 452.902,805.04 455.068,805.04 457.234,805.04 459.401,805.04 461.567,805.04 463.733,805.04 465.9,805.04 468.066,805.04 
  470.232,805.04 472.399,805.04 474.565,805.04 476.731,805.04 478.898,805.04 481.064,805.04 483.23,805.04 485.396,805.04 487.563,805.04 489.729,805.04 
  491.895,805.04 494.062,805.04 496.228,805.04 498.394,805.04 500.561,805.04 502.727,805.04 504.893,805.04 507.06,805.04 509.226,805.04 511.392,805.04 
  513.558,805.04 515.725,805.04 517.891,805.04 520.057,805.04 522.224,805.04 524.39,805.04 526.556,805.04 528.723,805.04 530.889,805.04 533.055,805.04 
  535.222,805.04 537.388,805.04 539.554,805.04 541.721,805.04 543.887,805.04 546.053,805.04 548.219,805.04 550.386,805.04 552.552,805.04 554.718,805.04 
  556.885,805.04 559.051,805.04 561.217,805.04 563.384,805.04 565.55,805.04 567.716,805.04 569.883,805.04 572.049,805.04 574.215,805.04 576.381,805.04 
  578.548,805.04 580.714,805.04 582.88,805.04 585.047,805.04 587.213,805.04 589.379,805.04 591.546,805.04 593.712,805.04 595.878,805.04 598.045,805.04 
  600.211,805.04 602.377,805.04 604.544,805.04 606.71,805.04 608.876,805.04 611.042,805.04 613.209,805.04 615.375,805.04 617.541,805.04 619.708,805.04 
  621.874,805.04 624.04,805.04 626.207,805.04 628.373,805.04 630.539,805.04 632.706,805.04 634.872,805.04 637.038,805.04 639.204,805.04 641.371,805.04 
  643.537,805.04 645.703,805.04 647.87,805.04 650.036,805.04 652.202,805.04 654.369,805.04 656.535,805.04 658.701,805.04 660.868,805.04 663.034,805.04 
  665.2,805.04 667.367,805.04 669.533,805.04 671.699,805.04 673.865,805.04 676.032,805.04 678.198,805.04 680.364,805.04 682.531,805.04 684.697,805.04 
  686.863,805.04 689.03,805.04 691.196,805.04 693.362,805.04 695.529,805.04 697.695,805.04 699.861,805.04 702.027,805.04 704.194,805.04 706.36,805.04 
  708.526,805.04 710.693,805.04 712.859,805.04 715.025,805.04 717.192,805.04 719.358,805.04 721.524,805.04 723.691,805.04 725.857,805.04 728.023,805.04 
  730.19,805.04 732.356,805.04 734.522,805.04 736.688,805.04 738.855,805.04 741.021,805.04 743.187,805.04 745.354,805.04 747.52,805.04 749.686,805.04 
  751.853,805.04 754.019,805.04 756.185,805.04 758.352,805.04 760.518,805.04 762.684,805.04 764.85,805.04 767.017,805.04 769.183,805.04 771.349,805.04 
  773.516,805.04 775.682,805.04 777.848,805.04 780.015,805.04 782.181,805.04 784.347,805.04 786.514,805.04 788.68,805.04 790.846,805.04 793.013,805.04 
  795.179,805.04 797.345,805.04 799.511,805.04 801.678,805.04 803.844,805.04 806.01,805.04 808.177,805.04 810.343,805.04 812.509,805.04 814.676,805.04 
  816.842,805.04 819.008,805.04 821.175,805.04 823.341,805.04 825.507,805.04 827.673,805.04 829.84,805.04 832.006,805.04 834.172,805.04 836.339,805.04 
  838.505,805.04 840.671,805.04 842.838,805.04 845.004,805.04 847.17,805.04 849.337,805.04 851.503,805.04 853.669,805.04 855.836,805.04 858.002,805.04 
  860.168,805.04 862.334,805.04 864.501,805.04 866.667,805.04 868.833,805.04 871,805.04 873.166,805.04 875.332,805.04 877.499,805.04 879.665,805.04 
  881.831,805.04 883.998,805.04 886.164,805.04 888.33,805.04 890.496,805.04 892.663,805.04 894.829,805.04 896.995,805.04 899.162,805.04 901.328,805.04 
  903.494,805.04 905.661,805.04 907.827,805.04 909.993,805.04 912.16,805.04 914.326,805.04 916.492,805.04 918.659,805.04 920.825,805.04 922.991,805.04 
  925.157,805.04 927.324,805.04 929.49,805.04 931.656,805.04 933.823,805.04 935.989,805.04 938.155,805.04 940.322,805.04 942.488,805.04 944.654,805.04 
  946.821,805.04 948.987,805.04 951.153,805.04 953.319,805.04 955.486,805.04 957.652,805.04 959.818,805.04 961.985,805.04 964.151,805.04 966.317,805.04 
  968.484,805.04 970.65,805.04 972.816,805.04 974.983,805.04 977.149,805.04 979.315,805.04 981.482,805.04 983.648,805.04 985.814,805.04 987.98,805.04 
  990.147,805.04 992.313,805.04 994.479,805.04 996.646,805.04 998.812,805.04 1000.98,805.04 1003.14,805.04 1005.31,805.04 1007.48,805.04 1009.64,805.04 
  1011.81,805.04 1013.98,805.04 1016.14,805.04 1018.31,805.04 1020.48,805.04 1022.64,805.04 1024.81,805.04 1026.97,805.04 1029.14,805.04 1031.31,805.04 
  1033.47,805.04 1035.64,805.04 1037.81,805.04 1039.97,805.04 1042.14,805.04 1044.3,805.04 1046.47,805.04 1048.64,805.04 1050.8,805.04 1052.97,805.04 
  1055.14,805.04 1057.3,805.04 1059.47,805.04 1061.63,805.04 1063.8,805.04 1065.97,805.04 1068.13,805.04 1070.3,805.04 1072.47,805.04 1074.63,805.04 
  1076.8,805.04 1078.97,805.04 1081.13,805.04 1083.3,805.04 1085.46,805.04 1087.63,805.04 1089.8,805.04 1091.96,805.04 1094.13,805.04 1096.3,805.04 
  1098.46,805.04 1100.63,805.04 1102.79,805.04 1104.96,805.04 1107.13,805.04 1109.29,805.04 1111.46,805.04 1113.63,805.04 1115.79,805.04 1117.96,805.04 
  1120.13,805.04 1122.29,805.04 1124.46,805.04 1126.62,805.04 1128.79,805.04 1130.96,805.04 1133.12,805.04 1135.29,805.04 1137.46,805.04 1139.62,805.04 
  1141.79,805.04 1143.95,805.04 1146.12,805.04 1148.29,805.04 1150.45,805.04 1152.62,805.04 1154.79,805.04 1156.95,805.04 1159.12,805.04 1161.29,805.04 
  1163.45,805.04 1165.62,805.04 1167.78,805.04 1169.95,805.04 1172.12,805.04 1174.28,805.04 1176.45,805.04 1178.62,805.04 1180.78,805.04 1182.95,805.04 
  1185.11,805.04 1187.28,805.04 1189.45,805.04 1191.61,805.04 1193.78,805.04 1195.95,805.04 1198.11,805.04 1200.28,805.04 1202.45,805.04 1204.61,805.04 
  1206.78,805.04 1208.94,805.04 1211.11,805.04 1213.28,805.04 1215.44,805.04 1217.61,805.04 1219.78,805.04 1221.94,805.04 1224.11,805.04 1226.27,805.04 
  1228.44,805.04 1230.61,805.04 1232.77,805.04 1234.94,805.04 1237.11,805.04 1239.27,805.04 1241.44,805.04 1243.61,805.04 1245.77,805.04 1247.94,805.04 
  1250.1,805.04 1252.27,805.04 1254.44,805.04 1256.6,805.04 1258.77,805.04 1260.94,805.04 1263.1,805.04 1265.27,805.04 1267.43,805.04 1269.6,805.04 
  1271.77,805.04 1273.93,805.04 1276.1,805.04 1278.27,805.04 1280.43,805.04 1282.6,805.04 1284.76,805.04 1286.93,805.04 1289.1,805.04 1291.26,805.04 
  1293.43,805.04 1295.6,805.04 1297.76,805.04 1299.93,805.04 1302.1,805.04 1304.26,805.04 1306.43,805.04 1308.59,805.04 1310.76,805.04 1312.93,805.04 
  1315.09,805.04 1317.26,805.04 1319.43,805.04 1321.59,805.04 1323.76,805.04 1325.92,805.04 1328.09,805.04 1330.26,805.04 1332.42,805.04 1334.59,805.04 
  1336.76,805.04 1338.92,805.04 1341.09,805.04 1343.26,805.04 1345.42,805.04 1347.59,805.04 1349.75,805.04 1351.92,805.04 1354.09,805.04 1356.25,805.04 
  1358.42,805.04 1360.59,805.04 1362.75,805.04 1364.92,805.04 1367.08,805.04 1369.25,805.04 1371.42,805.04 1373.58,805.04 1375.75,805.04 1377.92,805.04 
  1380.08,805.04 1382.25,805.04 1384.42,805.04 1386.58,805.04 1388.75,805.04 1390.91,805.04 1393.08,805.04 1395.25,805.04 1397.41,805.04 1399.58,805.04 
  1401.75,805.04 1403.91,805.04 1406.08,805.04 1408.24,805.04 1410.41,805.04 1412.58,805.04 1414.74,805.04 1416.91,805.04 1419.08,805.04 1421.24,805.04 
  1423.41,805.04 1425.58,805.04 1427.74,805.04 1429.91,805.04 1432.07,805.04 1434.24,805.04 1436.41,805.04 1438.57,805.04 1440.74,805.04 1442.91,805.04 
  1445.07,805.04 1447.24,805.04 1449.4,805.04 1451.57,805.04 1453.74,805.04 1455.9,805.04 1458.07,805.04 1460.24,805.04 1462.4,805.04 1464.57,805.04 
  1466.74,805.04 1468.9,805.04 1471.07,805.04 1473.23,805.04 1475.4,805.04 1477.57,805.04 1479.73,805.04 1481.9,805.04 1484.07,805.04 1486.23,805.04 
  1488.4,805.04 1490.56,805.04 1492.73,805.04 1494.9,805.04 1497.06,805.04 1499.23,805.04 1501.4,805.04 1503.56,805.04 1505.73,805.04 1507.89,805.04 
  1510.06,805.04 1512.23,805.04 1514.39,805.04 1516.56,805.04 1518.73,805.04 1520.89,805.04 1523.06,805.04 1525.23,805.04 1527.39,805.04 1529.56,805.04 
  1531.72,805.04 1533.89,805.04 1536.06,805.04 1538.22,805.04 1540.39,805.04 1542.56,805.04 1544.72,805.04 1546.89,805.04 1549.05,805.04 1551.22,805.04 
  1553.39,805.04 1555.55,805.04 1557.72,805.04 1559.89,805.04 1562.05,805.04 1564.22,805.04 1566.39,805.04 1568.55,805.04 1570.72,805.04 1572.88,805.04 
  1575.05,805.04 1577.22,805.04 1579.38,805.04 1581.55,805.04 1583.72,805.04 1585.88,805.04 1588.05,805.04 1590.21,805.04 1592.38,805.04 1594.55,805.04 
  1596.71,805.04 1598.88,805.04 1601.05,805.04 1603.21,805.04 1605.38,805.04 1607.55,805.04 1609.71,805.04 1611.88,805.04 1614.04,805.04 1616.21,805.04 
  1618.38,805.04 1620.54,805.04 1622.71,805.04 1624.88,805.04 1627.04,805.04 1629.21,805.04 1631.37,805.04 1633.54,805.04 1635.71,805.04 1637.87,805.04 
  1640.04,805.04 1642.21,805.04 1644.37,805.04 1646.54,805.04 1648.71,805.04 1650.87,805.04 1653.04,805.04 1655.2,805.04 1657.37,805.04 1659.54,805.04 
  1661.7,805.04 1663.87,805.04 1666.04,805.04 1668.2,805.04 1670.37,805.04 1672.53,805.04 1674.7,805.04 1676.87,805.04 1679.03,805.04 1681.2,805.04 
  1683.37,805.04 1685.53,805.04 1687.7,805.04 1689.86,805.04 1692.03,805.04 1694.2,805.04 1696.36,805.04 1698.53,805.04 1700.7,805.04 1702.86,805.04 
  1705.03,805.04 1707.2,805.04 1709.36,805.04 1711.53,805.04 1713.69,805.04 1715.86,805.04 1718.03,805.04 1720.19,805.04 1722.36,805.04 1724.53,805.04 
  1726.69,805.04 1728.86,805.04 1731.02,805.04 1733.19,805.04 1735.36,805.04 1737.52,805.04 1739.69,805.04 1741.86,805.04 1744.02,805.04 1746.19,805.04 
  1748.36,805.04 1750.52,805.04 1752.69,805.04 1754.85,805.04 1757.02,805.04 1759.19,805.04 1761.35,805.04 1763.52,805.04 1765.69,805.04 1767.85,805.04 
  1770.02,805.04 1772.18,805.04 1774.35,805.04 1776.52,805.04 1778.68,805.04 1780.85,805.04 1783.02,805.04 1785.18,805.04 1787.35,805.04 1789.52,805.04 
  1791.68,805.04 1793.85,805.04 1796.01,805.04 1798.18,805.04 1800.35,805.04 1802.51,805.04 1804.68,805.04 1806.85,805.04 1809.01,805.04 1811.18,805.04 
  1813.34,805.04 1815.51,805.04 1817.68,805.04 1819.84,805.04 1822.01,805.04 1824.18,805.04 1826.34,805.04 1828.51,805.04 1830.68,805.04 1832.84,805.04 
  1835.01,805.04 1837.17,805.04 1839.34,805.04 1841.51,805.04 1843.67,805.04 1845.84,805.04 1848.01,805.04 1850.17,805.04 1852.34,805.04 1854.5,805.04 
  1856.67,805.04 1858.84,805.04 1861,805.04 1863.17,805.04 1865.34,805.04 1867.5,805.04 1869.67,805.04 1871.84,805.04 1874,805.04 1876.17,805.04 
  1878.33,805.04 1880.5,805.04 1882.67,805.04 1884.83,805.04 1887,805.04 1889.17,805.04 1891.33,805.04 1893.5,805.04 1895.66,805.04 1897.83,805.04 
  1900,805.04 1902.16,805.04 1904.33,805.04 1906.5,805.04 1908.66,805.04 1910.83,805.04 1912.99,805.04 1915.16,805.04 1917.33,805.04 1919.49,805.04 
  1921.66,805.04 1923.83,805.04 1925.99,805.04 1928.16,805.04 1930.33,805.04 1932.49,805.04 1934.66,805.04 1936.82,805.04 1938.99,805.04 1941.16,805.04 
  1943.32,805.04 1945.49,805.04 1947.66,805.04 1949.82,805.04 1951.99,805.04 1954.15,805.04 1956.32,805.04 1958.49,805.04 1960.65,805.04 1962.82,805.04 
  1964.99,805.04 1967.15,805.04 1969.32,805.04 1971.49,805.04 1973.65,805.04 1975.82,805.04 1977.98,805.04 1980.15,805.04 1982.32,805.04 1984.48,805.04 
  1986.65,805.04 1988.82,805.04 1990.98,805.04 1993.15,805.04 1995.31,805.04 1997.48,805.04 1999.65,805.04 2001.81,805.04 2003.98,805.04 2006.15,805.04 
  2008.31,805.04 2010.48,805.04 2012.65,805.04 2014.81,805.04 2016.98,805.04 2019.14,805.04 2021.31,805.04 2023.48,805.04 2025.64,805.04 2027.81,805.04 
  2029.98,805.04 2032.14,805.04 2034.31,805.04 2036.47,805.04 2038.64,805.04 2040.81,805.04 2042.97,805.04 2045.14,805.04 2047.31,805.04 2049.47,805.04 
  2051.64,805.04 2053.81,805.04 2055.97,805.04 2058.14,805.04 2060.3,805.04 2062.47,805.04 2064.64,805.04 2066.8,805.04 2068.97,805.04 2071.14,805.04 
  2073.3,805.04 2075.47,805.04 2077.63,805.04 2079.8,805.04 2081.97,805.04 2084.13,805.04 2086.3,805.04 2088.47,805.04 2090.63,805.04 2092.8,805.04 
  2094.96,805.04 2097.13,805.04 2099.3,805.04 2101.46,805.04 2103.63,805.04 2105.8,805.04 2107.96,805.04 2110.13,805.04 2112.3,805.04 2114.46,805.04 
  2116.63,805.04 2118.79,805.04 2120.96,805.04 2123.13,805.04 2125.29,805.04 2127.46,805.04 2129.63,805.04 2131.79,805.04 2133.96,805.04 2136.12,805.04 
  2138.29,805.04 2140.46,805.04 2142.62,805.04 2144.79,805.04 2146.96,805.04 2149.12,805.04 2151.29,805.04 2153.46,805.04 2155.62,805.04 2157.79,805.04 
  2159.95,805.04 2162.12,805.04 2164.29,805.04 2166.45,805.04 2168.62,805.04 2170.79,805.04 2172.95,805.04 2175.12,805.04 2177.28,805.04 2179.45,805.04 
  2181.62,805.04 2183.78,805.04 2185.95,805.04 2188.12,805.04 2190.28,805.04 2192.45,805.04 2194.62,805.04 2196.78,805.04 2198.95,805.04 2201.11,805.04 
  2203.28,805.04 2205.45,805.04 2207.61,805.04 2209.78,805.04 2211.95,805.04 2214.11,805.04 2216.28,805.04 2218.44,805.04 2220.61,805.04 2222.78,805.04 
  2224.94,805.04 2227.11,805.04 2229.28,805.04 2231.44,805.04 2233.61,805.04 2235.78,805.04 2237.94,805.04 2240.11,805.04 2242.27,805.04 2244.44,805.04 
  2246.61,805.04 2248.77,805.04 2250.94,805.04 2253.11,805.04 2255.27,805.04 2257.44,805.04 2259.6,805.04 2261.77,805.04 2263.94,805.04 2266.1,805.04 
  2268.27,805.04 2270.44,805.04 2272.6,805.04 2274.77,805.04 2276.94,805.04 2279.1,805.04 2281.27,805.04 2283.43,805.04 2285.6,805.04 2287.77,805.04 
  2289.93,805.04 2292.1,805.04 2294.27,805.04 2296.43,805.04 2298.6,805.04 2300.76,805.04 2302.93,805.04 2305.1,805.04 2307.26,805.04 2309.43,805.04 
  2311.6,805.04 2313.76,805.04 2315.93,805.04 2318.09,805.04 2320.26,805.04 2322.43,805.04 2324.59,805.04 2326.76,805.04 2328.93,805.04 2331.09,805.04 
  2333.26,805.04 2335.43,805.04 2337.59,805.04 2339.76,805.04 2341.92,805.04 2344.09,805.04 2346.26,805.04 2348.42,805.04 2350.59,805.04 2352.76,805.04 
  
  "/>
<polyline clip-path="url(#clip932)" style="stroke:#e26f46; stroke-width:4; stroke-opacity:1; fill:none" points="
  188.612,1382.94 190.778,1382.1 192.945,1380.73 195.111,1378.53 197.277,1375.05 199.444,1369.7 201.61,1361.89 203.776,1351.29 205.942,1338.48 208.109,1325.48 
  210.275,1315.54 212.441,1311.68 214.608,1314.77 216.774,1323.22 218.94,1334.29 221.107,1345.5 223.273,1355.36 225.439,1363.31 227.606,1369.38 229.772,1373.83 
  231.938,1377.03 234.104,1379.26 236.271,1380.82 238.437,1381.9 240.603,1382.64 242.77,1383.15 244.936,1383.5 247.102,1383.73 249.269,1383.9 251.435,1384.01 
  253.601,1384.08 255.768,1384.13 257.934,1384.17 260.1,1384.19 262.267,1384.2 264.433,1384.22 266.599,1384.22 268.765,1384.23 270.932,1384.23 273.098,1384.23 
  275.264,1384.23 277.431,1384.24 279.597,1384.24 281.763,1384.24 283.93,1384.24 286.096,1384.24 288.262,1384.24 290.429,1384.24 292.595,1384.24 294.761,1384.24 
  296.927,1384.24 299.094,1384.24 301.26,1384.24 303.426,1384.24 305.593,1384.24 307.759,1384.24 309.925,1384.24 312.092,1384.24 314.258,1384.24 316.424,1384.24 
  318.591,1384.24 320.757,1384.24 322.923,1384.24 325.089,1384.24 327.256,1384.24 329.422,1384.24 331.588,1384.24 333.755,1384.24 335.921,1384.24 338.087,1384.24 
  340.254,1384.24 342.42,1384.24 344.586,1384.24 346.753,1384.24 348.919,1384.24 351.085,1384.24 353.252,1384.24 355.418,1384.24 357.584,1384.24 359.75,1384.24 
  361.917,1384.24 364.083,1384.24 366.249,1384.24 368.416,1384.24 370.582,1384.24 372.748,1384.24 374.915,1384.24 377.081,1384.24 379.247,1384.24 381.414,1384.24 
  383.58,1384.24 385.746,1384.24 387.912,1384.24 390.079,1384.24 392.245,1384.24 394.411,1384.24 396.578,1384.24 398.744,1384.24 400.91,1384.24 403.077,1384.24 
  405.243,1384.24 407.409,1384.24 409.576,1384.24 411.742,1384.24 413.908,1384.24 416.075,1384.24 418.241,1384.24 420.407,1384.24 422.573,1384.24 424.74,1384.24 
  426.906,1384.24 429.072,1384.24 431.239,1384.24 433.405,1384.24 435.571,1384.24 437.738,1384.24 439.904,1384.24 442.07,1384.24 444.237,1384.24 446.403,1384.24 
  448.569,1384.24 450.735,1384.24 452.902,1384.24 455.068,1384.24 457.234,1384.24 459.401,1384.24 461.567,1384.24 463.733,1384.24 465.9,1384.24 468.066,1384.24 
  470.232,1384.24 472.399,1384.24 474.565,1384.24 476.731,1384.24 478.898,1384.24 481.064,1384.24 483.23,1384.24 485.396,1384.24 487.563,1384.24 489.729,1384.24 
  491.895,1384.24 494.062,1384.24 496.228,1384.24 498.394,1384.24 500.561,1384.24 502.727,1384.24 504.893,1384.24 507.06,1384.24 509.226,1384.24 511.392,1384.24 
  513.558,1384.24 515.725,1384.24 517.891,1384.24 520.057,1384.24 522.224,1384.24 524.39,1384.24 526.556,1384.24 528.723,1384.24 530.889,1384.24 533.055,1384.24 
  535.222,1384.24 537.388,1384.24 539.554,1384.24 541.721,1384.24 543.887,1384.24 546.053,1384.24 548.219,1384.24 550.386,1384.24 552.552,1384.24 554.718,1384.24 
  556.885,1384.24 559.051,1384.24 561.217,1384.24 563.384,1384.24 565.55,1384.24 567.716,1384.24 569.883,1384.24 572.049,1384.24 574.215,1384.24 576.381,1384.24 
  578.548,1384.24 580.714,1384.24 582.88,1384.24 585.047,1384.24 587.213,1384.24 589.379,1384.24 591.546,1384.24 593.712,1384.24 595.878,1384.24 598.045,1384.24 
  600.211,1384.24 602.377,1384.24 604.544,1384.24 606.71,1384.24 608.876,1384.24 611.042,1384.24 613.209,1384.24 615.375,1384.24 617.541,1384.24 619.708,1384.24 
  621.874,1384.24 624.04,1384.24 626.207,1384.24 628.373,1384.24 630.539,1384.24 632.706,1384.24 634.872,1384.24 637.038,1384.24 639.204,1384.24 641.371,1384.24 
  643.537,1384.24 645.703,1384.24 647.87,1384.24 650.036,1384.24 652.202,1384.24 654.369,1384.24 656.535,1384.24 658.701,1384.24 660.868,1384.24 663.034,1384.24 
  665.2,1384.24 667.367,1384.24 669.533,1384.24 671.699,1384.24 673.865,1384.24 676.032,1384.24 678.198,1384.24 680.364,1384.24 682.531,1384.24 684.697,1384.24 
  686.863,1384.24 689.03,1384.24 691.196,1384.24 693.362,1384.24 695.529,1384.24 697.695,1384.24 699.861,1384.24 702.027,1384.24 704.194,1384.24 706.36,1384.24 
  708.526,1384.24 710.693,1384.24 712.859,1384.24 715.025,1384.24 717.192,1384.24 719.358,1384.24 721.524,1384.24 723.691,1384.24 725.857,1384.24 728.023,1384.24 
  730.19,1384.24 732.356,1384.24 734.522,1384.24 736.688,1384.24 738.855,1384.24 741.021,1384.24 743.187,1384.24 745.354,1384.24 747.52,1384.24 749.686,1384.24 
  751.853,1384.24 754.019,1384.24 756.185,1384.24 758.352,1384.24 760.518,1384.24 762.684,1384.24 764.85,1384.24 767.017,1384.24 769.183,1384.24 771.349,1384.24 
  773.516,1384.24 775.682,1384.24 777.848,1384.24 780.015,1384.24 782.181,1384.24 784.347,1384.24 786.514,1384.24 788.68,1384.24 790.846,1384.24 793.013,1384.24 
  795.179,1384.24 797.345,1384.24 799.511,1384.24 801.678,1384.24 803.844,1384.24 806.01,1384.24 808.177,1384.24 810.343,1384.24 812.509,1384.24 814.676,1384.24 
  816.842,1384.24 819.008,1384.24 821.175,1384.24 823.341,1384.24 825.507,1384.24 827.673,1384.24 829.84,1384.24 832.006,1384.24 834.172,1384.24 836.339,1384.24 
  838.505,1384.24 840.671,1384.24 842.838,1384.24 845.004,1384.24 847.17,1384.24 849.337,1384.24 851.503,1384.24 853.669,1384.24 855.836,1384.24 858.002,1384.24 
  860.168,1384.24 862.334,1384.24 864.501,1384.24 866.667,1384.24 868.833,1384.24 871,1384.24 873.166,1384.24 875.332,1384.24 877.499,1384.24 879.665,1384.24 
  881.831,1384.24 883.998,1384.24 886.164,1384.24 888.33,1384.24 890.496,1384.24 892.663,1384.24 894.829,1384.24 896.995,1384.24 899.162,1384.24 901.328,1384.24 
  903.494,1384.24 905.661,1384.24 907.827,1384.24 909.993,1384.24 912.16,1384.24 914.326,1384.24 916.492,1384.24 918.659,1384.24 920.825,1384.24 922.991,1384.24 
  925.157,1384.24 927.324,1384.24 929.49,1384.24 931.656,1384.24 933.823,1384.24 935.989,1384.24 938.155,1384.24 940.322,1384.24 942.488,1384.24 944.654,1384.24 
  946.821,1384.24 948.987,1384.24 951.153,1384.24 953.319,1384.24 955.486,1384.24 957.652,1384.24 959.818,1384.24 961.985,1384.24 964.151,1384.24 966.317,1384.24 
  968.484,1384.24 970.65,1384.24 972.816,1384.24 974.983,1384.24 977.149,1384.24 979.315,1384.24 981.482,1384.24 983.648,1384.24 985.814,1384.24 987.98,1384.24 
  990.147,1384.24 992.313,1384.24 994.479,1384.24 996.646,1384.24 998.812,1384.24 1000.98,1384.24 1003.14,1384.24 1005.31,1384.24 1007.48,1384.24 1009.64,1384.24 
  1011.81,1384.24 1013.98,1384.24 1016.14,1384.24 1018.31,1384.24 1020.48,1384.24 1022.64,1384.24 1024.81,1384.24 1026.97,1384.24 1029.14,1384.24 1031.31,1384.24 
  1033.47,1384.24 1035.64,1384.24 1037.81,1384.24 1039.97,1384.24 1042.14,1384.24 1044.3,1384.24 1046.47,1384.24 1048.64,1384.24 1050.8,1384.24 1052.97,1384.24 
  1055.14,1384.24 1057.3,1384.24 1059.47,1384.24 1061.63,1384.24 1063.8,1384.24 1065.97,1384.24 1068.13,1384.24 1070.3,1384.24 1072.47,1384.24 1074.63,1384.24 
  1076.8,1384.24 1078.97,1384.24 1081.13,1384.24 1083.3,1384.24 1085.46,1384.24 1087.63,1384.24 1089.8,1384.24 1091.96,1384.24 1094.13,1384.24 1096.3,1384.24 
  1098.46,1384.24 1100.63,1384.24 1102.79,1384.24 1104.96,1384.24 1107.13,1384.24 1109.29,1384.24 1111.46,1384.24 1113.63,1384.24 1115.79,1384.24 1117.96,1384.24 
  1120.13,1384.24 1122.29,1384.24 1124.46,1384.24 1126.62,1384.24 1128.79,1384.24 1130.96,1384.24 1133.12,1384.24 1135.29,1384.24 1137.46,1384.24 1139.62,1384.24 
  1141.79,1384.24 1143.95,1384.24 1146.12,1384.24 1148.29,1384.24 1150.45,1384.24 1152.62,1384.24 1154.79,1384.24 1156.95,1384.24 1159.12,1384.24 1161.29,1384.24 
  1163.45,1384.24 1165.62,1384.24 1167.78,1384.24 1169.95,1384.24 1172.12,1384.24 1174.28,1384.24 1176.45,1384.24 1178.62,1384.24 1180.78,1384.24 1182.95,1384.24 
  1185.11,1384.24 1187.28,1384.24 1189.45,1384.24 1191.61,1384.24 1193.78,1384.24 1195.95,1384.24 1198.11,1384.24 1200.28,1384.24 1202.45,1384.24 1204.61,1384.24 
  1206.78,1384.24 1208.94,1384.24 1211.11,1384.24 1213.28,1384.24 1215.44,1384.24 1217.61,1384.24 1219.78,1384.24 1221.94,1384.24 1224.11,1384.24 1226.27,1384.24 
  1228.44,1384.24 1230.61,1384.24 1232.77,1384.24 1234.94,1384.24 1237.11,1384.24 1239.27,1384.24 1241.44,1384.24 1243.61,1384.24 1245.77,1384.24 1247.94,1384.24 
  1250.1,1384.24 1252.27,1384.24 1254.44,1384.24 1256.6,1384.24 1258.77,1384.24 1260.94,1384.24 1263.1,1384.24 1265.27,1384.24 1267.43,1384.24 1269.6,1384.24 
  1271.77,1384.24 1273.93,1384.24 1276.1,1384.24 1278.27,1384.24 1280.43,1384.24 1282.6,1384.24 1284.76,1384.24 1286.93,1384.24 1289.1,1384.24 1291.26,1384.24 
  1293.43,1384.24 1295.6,1384.24 1297.76,1384.24 1299.93,1384.24 1302.1,1384.24 1304.26,1384.24 1306.43,1384.24 1308.59,1384.24 1310.76,1384.24 1312.93,1384.24 
  1315.09,1384.24 1317.26,1384.24 1319.43,1384.24 1321.59,1384.24 1323.76,1384.24 1325.92,1384.24 1328.09,1384.24 1330.26,1384.24 1332.42,1384.24 1334.59,1384.24 
  1336.76,1384.24 1338.92,1384.24 1341.09,1384.24 1343.26,1384.24 1345.42,1384.24 1347.59,1384.24 1349.75,1384.24 1351.92,1384.24 1354.09,1384.24 1356.25,1384.24 
  1358.42,1384.24 1360.59,1384.24 1362.75,1384.24 1364.92,1384.24 1367.08,1384.24 1369.25,1384.24 1371.42,1384.24 1373.58,1384.24 1375.75,1384.24 1377.92,1384.24 
  1380.08,1384.24 1382.25,1384.24 1384.42,1384.24 1386.58,1384.24 1388.75,1384.24 1390.91,1384.24 1393.08,1384.24 1395.25,1384.24 1397.41,1384.24 1399.58,1384.24 
  1401.75,1384.24 1403.91,1384.24 1406.08,1384.24 1408.24,1384.24 1410.41,1384.24 1412.58,1384.24 1414.74,1384.24 1416.91,1384.24 1419.08,1384.24 1421.24,1384.24 
  1423.41,1384.24 1425.58,1384.24 1427.74,1384.24 1429.91,1384.24 1432.07,1384.24 1434.24,1384.24 1436.41,1384.24 1438.57,1384.24 1440.74,1384.24 1442.91,1384.24 
  1445.07,1384.24 1447.24,1384.24 1449.4,1384.24 1451.57,1384.24 1453.74,1384.24 1455.9,1384.24 1458.07,1384.24 1460.24,1384.24 1462.4,1384.24 1464.57,1384.24 
  1466.74,1384.24 1468.9,1384.24 1471.07,1384.24 1473.23,1384.24 1475.4,1384.24 1477.57,1384.24 1479.73,1384.24 1481.9,1384.24 1484.07,1384.24 1486.23,1384.24 
  1488.4,1384.24 1490.56,1384.24 1492.73,1384.24 1494.9,1384.24 1497.06,1384.24 1499.23,1384.24 1501.4,1384.24 1503.56,1384.24 1505.73,1384.24 1507.89,1384.24 
  1510.06,1384.24 1512.23,1384.24 1514.39,1384.24 1516.56,1384.24 1518.73,1384.24 1520.89,1384.24 1523.06,1384.24 1525.23,1384.24 1527.39,1384.24 1529.56,1384.24 
  1531.72,1384.24 1533.89,1384.24 1536.06,1384.24 1538.22,1384.24 1540.39,1384.24 1542.56,1384.24 1544.72,1384.24 1546.89,1384.24 1549.05,1384.24 1551.22,1384.24 
  1553.39,1384.24 1555.55,1384.24 1557.72,1384.24 1559.89,1384.24 1562.05,1384.24 1564.22,1384.24 1566.39,1384.24 1568.55,1384.24 1570.72,1384.24 1572.88,1384.24 
  1575.05,1384.24 1577.22,1384.24 1579.38,1384.24 1581.55,1384.24 1583.72,1384.24 1585.88,1384.24 1588.05,1384.24 1590.21,1384.24 1592.38,1384.24 1594.55,1384.24 
  1596.71,1384.24 1598.88,1384.24 1601.05,1384.24 1603.21,1384.24 1605.38,1384.24 1607.55,1384.24 1609.71,1384.24 1611.88,1384.24 1614.04,1384.24 1616.21,1384.24 
  1618.38,1384.24 1620.54,1384.24 1622.71,1384.24 1624.88,1384.24 1627.04,1384.24 1629.21,1384.24 1631.37,1384.24 1633.54,1384.24 1635.71,1384.24 1637.87,1384.24 
  1640.04,1384.24 1642.21,1384.24 1644.37,1384.24 1646.54,1384.24 1648.71,1384.24 1650.87,1384.24 1653.04,1384.24 1655.2,1384.24 1657.37,1384.24 1659.54,1384.24 
  1661.7,1384.24 1663.87,1384.24 1666.04,1384.24 1668.2,1384.24 1670.37,1384.24 1672.53,1384.24 1674.7,1384.24 1676.87,1384.24 1679.03,1384.24 1681.2,1384.24 
  1683.37,1384.24 1685.53,1384.24 1687.7,1384.24 1689.86,1384.24 1692.03,1384.24 1694.2,1384.24 1696.36,1384.24 1698.53,1384.24 1700.7,1384.24 1702.86,1384.24 
  1705.03,1384.24 1707.2,1384.24 1709.36,1384.24 1711.53,1384.24 1713.69,1384.24 1715.86,1384.24 1718.03,1384.24 1720.19,1384.24 1722.36,1384.24 1724.53,1384.24 
  1726.69,1384.24 1728.86,1384.24 1731.02,1384.24 1733.19,1384.24 1735.36,1384.24 1737.52,1384.24 1739.69,1384.24 1741.86,1384.24 1744.02,1384.24 1746.19,1384.24 
  1748.36,1384.24 1750.52,1384.24 1752.69,1384.24 1754.85,1384.24 1757.02,1384.24 1759.19,1384.24 1761.35,1384.24 1763.52,1384.24 1765.69,1384.24 1767.85,1384.24 
  1770.02,1384.24 1772.18,1384.24 1774.35,1384.24 1776.52,1384.24 1778.68,1384.24 1780.85,1384.24 1783.02,1384.24 1785.18,1384.24 1787.35,1384.24 1789.52,1384.24 
  1791.68,1384.24 1793.85,1384.24 1796.01,1384.24 1798.18,1384.24 1800.35,1384.24 1802.51,1384.24 1804.68,1384.24 1806.85,1384.24 1809.01,1384.24 1811.18,1384.24 
  1813.34,1384.24 1815.51,1384.24 1817.68,1384.24 1819.84,1384.24 1822.01,1384.24 1824.18,1384.24 1826.34,1384.24 1828.51,1384.24 1830.68,1384.24 1832.84,1384.24 
  1835.01,1384.24 1837.17,1384.24 1839.34,1384.24 1841.51,1384.24 1843.67,1384.24 1845.84,1384.24 1848.01,1384.24 1850.17,1384.24 1852.34,1384.24 1854.5,1384.24 
  1856.67,1384.24 1858.84,1384.24 1861,1384.24 1863.17,1384.24 1865.34,1384.24 1867.5,1384.24 1869.67,1384.24 1871.84,1384.24 1874,1384.24 1876.17,1384.24 
  1878.33,1384.24 1880.5,1384.24 1882.67,1384.24 1884.83,1384.24 1887,1384.24 1889.17,1384.24 1891.33,1384.24 1893.5,1384.24 1895.66,1384.24 1897.83,1384.24 
  1900,1384.24 1902.16,1384.24 1904.33,1384.24 1906.5,1384.24 1908.66,1384.24 1910.83,1384.24 1912.99,1384.24 1915.16,1384.24 1917.33,1384.24 1919.49,1384.24 
  1921.66,1384.24 1923.83,1384.24 1925.99,1384.24 1928.16,1384.24 1930.33,1384.24 1932.49,1384.24 1934.66,1384.24 1936.82,1384.24 1938.99,1384.24 1941.16,1384.24 
  1943.32,1384.24 1945.49,1384.24 1947.66,1384.24 1949.82,1384.24 1951.99,1384.24 1954.15,1384.24 1956.32,1384.24 1958.49,1384.24 1960.65,1384.24 1962.82,1384.24 
  1964.99,1384.24 1967.15,1384.24 1969.32,1384.24 1971.49,1384.24 1973.65,1384.24 1975.82,1384.24 1977.98,1384.24 1980.15,1384.24 1982.32,1384.24 1984.48,1384.24 
  1986.65,1384.24 1988.82,1384.24 1990.98,1384.24 1993.15,1384.24 1995.31,1384.24 1997.48,1384.24 1999.65,1384.24 2001.81,1384.24 2003.98,1384.24 2006.15,1384.24 
  2008.31,1384.24 2010.48,1384.24 2012.65,1384.24 2014.81,1384.24 2016.98,1384.24 2019.14,1384.24 2021.31,1384.24 2023.48,1384.24 2025.64,1384.24 2027.81,1384.24 
  2029.98,1384.24 2032.14,1384.24 2034.31,1384.24 2036.47,1384.24 2038.64,1384.24 2040.81,1384.24 2042.97,1384.24 2045.14,1384.24 2047.31,1384.24 2049.47,1384.24 
  2051.64,1384.24 2053.81,1384.24 2055.97,1384.24 2058.14,1384.24 2060.3,1384.24 2062.47,1384.24 2064.64,1384.24 2066.8,1384.24 2068.97,1384.24 2071.14,1384.24 
  2073.3,1384.24 2075.47,1384.24 2077.63,1384.24 2079.8,1384.24 2081.97,1384.24 2084.13,1384.24 2086.3,1384.24 2088.47,1384.24 2090.63,1384.24 2092.8,1384.24 
  2094.96,1384.24 2097.13,1384.24 2099.3,1384.24 2101.46,1384.24 2103.63,1384.24 2105.8,1384.24 2107.96,1384.24 2110.13,1384.24 2112.3,1384.24 2114.46,1384.24 
  2116.63,1384.24 2118.79,1384.24 2120.96,1384.24 2123.13,1384.24 2125.29,1384.24 2127.46,1384.24 2129.63,1384.24 2131.79,1384.24 2133.96,1384.24 2136.12,1384.24 
  2138.29,1384.24 2140.46,1384.24 2142.62,1384.24 2144.79,1384.24 2146.96,1384.24 2149.12,1384.24 2151.29,1384.24 2153.46,1384.24 2155.62,1384.24 2157.79,1384.24 
  2159.95,1384.24 2162.12,1384.24 2164.29,1384.24 2166.45,1384.24 2168.62,1384.24 2170.79,1384.24 2172.95,1384.24 2175.12,1384.24 2177.28,1384.24 2179.45,1384.24 
  2181.62,1384.24 2183.78,1384.24 2185.95,1384.24 2188.12,1384.24 2190.28,1384.24 2192.45,1384.24 2194.62,1384.24 2196.78,1384.24 2198.95,1384.24 2201.11,1384.24 
  2203.28,1384.24 2205.45,1384.24 2207.61,1384.24 2209.78,1384.24 2211.95,1384.24 2214.11,1384.24 2216.28,1384.24 2218.44,1384.24 2220.61,1384.24 2222.78,1384.24 
  2224.94,1384.24 2227.11,1384.24 2229.28,1384.24 2231.44,1384.24 2233.61,1384.24 2235.78,1384.24 2237.94,1384.24 2240.11,1384.24 2242.27,1384.24 2244.44,1384.24 
  2246.61,1384.24 2248.77,1384.24 2250.94,1384.24 2253.11,1384.24 2255.27,1384.24 2257.44,1384.24 2259.6,1384.24 2261.77,1384.24 2263.94,1384.24 2266.1,1384.24 
  2268.27,1384.24 2270.44,1384.24 2272.6,1384.24 2274.77,1384.24 2276.94,1384.24 2279.1,1384.24 2281.27,1384.24 2283.43,1384.24 2285.6,1384.24 2287.77,1384.24 
  2289.93,1384.24 2292.1,1384.24 2294.27,1384.24 2296.43,1384.24 2298.6,1384.24 2300.76,1384.24 2302.93,1384.24 2305.1,1384.24 2307.26,1384.24 2309.43,1384.24 
  2311.6,1384.24 2313.76,1384.24 2315.93,1384.24 2318.09,1384.24 2320.26,1384.24 2322.43,1384.24 2324.59,1384.24 2326.76,1384.24 2328.93,1384.24 2331.09,1384.24 
  2333.26,1384.24 2335.43,1384.24 2337.59,1384.24 2339.76,1384.24 2341.92,1384.24 2344.09,1384.24 2346.26,1384.24 2348.42,1384.24 2350.59,1384.24 2352.76,1384.24 
  
  "/>
<polyline clip-path="url(#clip932)" style="stroke:#3da44d; stroke-width:4; stroke-opacity:1; fill:none" points="
  188.612,1384.24 190.778,1382.38 192.945,1379.34 195.111,1374.36 197.277,1366.3 199.444,1353.43 201.61,1333.37 203.776,1303.18 205.942,1259.99 208.109,1202.32 
  210.275,1131.7 212.441,1053.31 214.608,974.504 216.774,902.296 218.94,841.109 221.107,792.368 223.273,755.273 225.439,728.031 227.606,708.494 229.772,694.702 
  231.938,685.09 234.104,678.482 236.271,673.914 238.437,670.787 240.603,668.648 242.77,667.19 244.936,666.199 247.102,665.522 249.269,665.063 251.435,664.749 
  253.601,664.537 255.768,664.392 257.934,664.294 260.1,664.227 262.267,664.182 264.433,664.151 266.599,664.13 268.765,664.116 270.932,664.106 273.098,664.1 
  275.264,664.095 277.431,664.092 279.597,664.09 281.763,664.089 283.93,664.088 286.096,664.087 288.262,664.087 290.429,664.086 292.595,664.086 294.761,664.086 
  296.927,664.086 299.094,664.086 301.26,664.086 303.426,664.086 305.593,664.086 307.759,664.086 309.925,664.086 312.092,664.086 314.258,664.086 316.424,664.086 
  318.591,664.086 320.757,664.086 322.923,664.086 325.089,664.086 327.256,664.086 329.422,664.086 331.588,664.086 333.755,664.086 335.921,664.086 338.087,664.086 
  340.254,664.086 342.42,664.086 344.586,664.086 346.753,664.086 348.919,664.086 351.085,664.086 353.252,664.086 355.418,664.086 357.584,664.086 359.75,664.086 
  361.917,664.086 364.083,664.086 366.249,664.086 368.416,664.086 370.582,664.086 372.748,664.086 374.915,664.086 377.081,664.086 379.247,664.086 381.414,664.086 
  383.58,664.086 385.746,664.086 387.912,664.086 390.079,664.086 392.245,664.086 394.411,664.086 396.578,664.086 398.744,664.086 400.91,664.086 403.077,664.086 
  405.243,664.086 407.409,664.086 409.576,664.086 411.742,664.086 413.908,664.086 416.075,664.086 418.241,664.086 420.407,664.086 422.573,664.086 424.74,664.086 
  426.906,664.086 429.072,664.086 431.239,664.086 433.405,664.086 435.571,664.086 437.738,664.086 439.904,664.086 442.07,664.086 444.237,664.086 446.403,664.086 
  448.569,664.086 450.735,664.086 452.902,664.086 455.068,664.086 457.234,664.086 459.401,664.086 461.567,664.086 463.733,664.086 465.9,664.086 468.066,664.086 
  470.232,664.086 472.399,664.086 474.565,664.086 476.731,664.086 478.898,664.086 481.064,664.086 483.23,664.086 485.396,664.086 487.563,664.086 489.729,664.086 
  491.895,664.086 494.062,664.086 496.228,664.086 498.394,664.086 500.561,664.086 502.727,664.086 504.893,664.086 507.06,664.086 509.226,664.086 511.392,664.086 
  513.558,664.086 515.725,664.086 517.891,664.086 520.057,664.086 522.224,664.086 524.39,664.086 526.556,664.086 528.723,664.086 530.889,664.086 533.055,664.086 
  535.222,664.086 537.388,664.086 539.554,664.086 541.721,664.086 543.887,664.086 546.053,664.086 548.219,664.086 550.386,664.086 552.552,664.086 554.718,664.086 
  556.885,664.086 559.051,664.086 561.217,664.086 563.384,664.086 565.55,664.086 567.716,664.086 569.883,664.086 572.049,664.086 574.215,664.086 576.381,664.086 
  578.548,664.086 580.714,664.086 582.88,664.086 585.047,664.086 587.213,664.086 589.379,664.086 591.546,664.086 593.712,664.086 595.878,664.086 598.045,664.086 
  600.211,664.086 602.377,664.086 604.544,664.086 606.71,664.086 608.876,664.086 611.042,664.086 613.209,664.086 615.375,664.086 617.541,664.086 619.708,664.086 
  621.874,664.086 624.04,664.086 626.207,664.086 628.373,664.086 630.539,664.086 632.706,664.086 634.872,664.086 637.038,664.086 639.204,664.086 641.371,664.086 
  643.537,664.086 645.703,664.086 647.87,664.086 650.036,664.086 652.202,664.086 654.369,664.086 656.535,664.086 658.701,664.086 660.868,664.086 663.034,664.086 
  665.2,664.086 667.367,664.086 669.533,664.086 671.699,664.086 673.865,664.086 676.032,664.086 678.198,664.086 680.364,664.086 682.531,664.086 684.697,664.086 
  686.863,664.086 689.03,664.086 691.196,664.086 693.362,664.086 695.529,664.086 697.695,664.086 699.861,664.086 702.027,664.086 704.194,664.086 706.36,664.086 
  708.526,664.086 710.693,664.086 712.859,664.086 715.025,664.086 717.192,664.086 719.358,664.086 721.524,664.086 723.691,664.086 725.857,664.086 728.023,664.086 
  730.19,664.086 732.356,664.086 734.522,664.086 736.688,664.086 738.855,664.086 741.021,664.086 743.187,664.086 745.354,664.086 747.52,664.086 749.686,664.086 
  751.853,664.086 754.019,664.086 756.185,664.086 758.352,664.086 760.518,664.086 762.684,664.086 764.85,664.086 767.017,664.086 769.183,664.086 771.349,664.086 
  773.516,664.086 775.682,664.086 777.848,664.086 780.015,664.086 782.181,664.086 784.347,664.086 786.514,664.086 788.68,664.086 790.846,664.086 793.013,664.086 
  795.179,664.086 797.345,664.086 799.511,664.086 801.678,664.086 803.844,664.086 806.01,664.086 808.177,664.086 810.343,664.086 812.509,664.086 814.676,664.086 
  816.842,664.086 819.008,664.086 821.175,664.086 823.341,664.086 825.507,664.086 827.673,664.086 829.84,664.086 832.006,664.086 834.172,664.086 836.339,664.086 
  838.505,664.086 840.671,664.086 842.838,664.086 845.004,664.086 847.17,664.086 849.337,664.086 851.503,664.086 853.669,664.086 855.836,664.086 858.002,664.086 
  860.168,664.086 862.334,664.086 864.501,664.086 866.667,664.086 868.833,664.086 871,664.086 873.166,664.086 875.332,664.086 877.499,664.086 879.665,664.086 
  881.831,664.086 883.998,664.086 886.164,664.086 888.33,664.086 890.496,664.086 892.663,664.086 894.829,664.086 896.995,664.086 899.162,664.086 901.328,664.086 
  903.494,664.086 905.661,664.086 907.827,664.086 909.993,664.086 912.16,664.086 914.326,664.086 916.492,664.086 918.659,664.086 920.825,664.086 922.991,664.086 
  925.157,664.086 927.324,664.086 929.49,664.086 931.656,664.086 933.823,664.086 935.989,664.086 938.155,664.086 940.322,664.086 942.488,664.086 944.654,664.086 
  946.821,664.086 948.987,664.086 951.153,664.086 953.319,664.086 955.486,664.086 957.652,664.086 959.818,664.086 961.985,664.086 964.151,664.086 966.317,664.086 
  968.484,664.086 970.65,664.086 972.816,664.086 974.983,664.086 977.149,664.086 979.315,664.086 981.482,664.086 983.648,664.086 985.814,664.086 987.98,664.086 
  990.147,664.086 992.313,664.086 994.479,664.086 996.646,664.086 998.812,664.086 1000.98,664.086 1003.14,664.086 1005.31,664.086 1007.48,664.086 1009.64,664.086 
  1011.81,664.086 1013.98,664.086 1016.14,664.086 1018.31,664.086 1020.48,664.086 1022.64,664.086 1024.81,664.086 1026.97,664.086 1029.14,664.086 1031.31,664.086 
  1033.47,664.086 1035.64,664.086 1037.81,664.086 1039.97,664.086 1042.14,664.086 1044.3,664.086 1046.47,664.086 1048.64,664.086 1050.8,664.086 1052.97,664.086 
  1055.14,664.086 1057.3,664.086 1059.47,664.086 1061.63,664.086 1063.8,664.086 1065.97,664.086 1068.13,664.086 1070.3,664.086 1072.47,664.086 1074.63,664.086 
  1076.8,664.086 1078.97,664.086 1081.13,664.086 1083.3,664.086 1085.46,664.086 1087.63,664.086 1089.8,664.086 1091.96,664.086 1094.13,664.086 1096.3,664.086 
  1098.46,664.086 1100.63,664.086 1102.79,664.086 1104.96,664.086 1107.13,664.086 1109.29,664.086 1111.46,664.086 1113.63,664.086 1115.79,664.086 1117.96,664.086 
  1120.13,664.086 1122.29,664.086 1124.46,664.086 1126.62,664.086 1128.79,664.086 1130.96,664.086 1133.12,664.086 1135.29,664.086 1137.46,664.086 1139.62,664.086 
  1141.79,664.086 1143.95,664.086 1146.12,664.086 1148.29,664.086 1150.45,664.086 1152.62,664.086 1154.79,664.086 1156.95,664.086 1159.12,664.086 1161.29,664.086 
  1163.45,664.086 1165.62,664.086 1167.78,664.086 1169.95,664.086 1172.12,664.086 1174.28,664.086 1176.45,664.086 1178.62,664.086 1180.78,664.086 1182.95,664.086 
  1185.11,664.086 1187.28,664.086 1189.45,664.086 1191.61,664.086 1193.78,664.086 1195.95,664.086 1198.11,664.086 1200.28,664.086 1202.45,664.086 1204.61,664.086 
  1206.78,664.086 1208.94,664.086 1211.11,664.086 1213.28,664.086 1215.44,664.086 1217.61,664.086 1219.78,664.086 1221.94,664.086 1224.11,664.086 1226.27,664.086 
  1228.44,664.086 1230.61,664.086 1232.77,664.086 1234.94,664.086 1237.11,664.086 1239.27,664.086 1241.44,664.086 1243.61,664.086 1245.77,664.086 1247.94,664.086 
  1250.1,664.086 1252.27,664.086 1254.44,664.086 1256.6,664.086 1258.77,664.086 1260.94,664.086 1263.1,664.086 1265.27,664.086 1267.43,664.086 1269.6,664.086 
  1271.77,664.086 1273.93,664.086 1276.1,664.086 1278.27,664.086 1280.43,664.086 1282.6,664.086 1284.76,664.086 1286.93,664.086 1289.1,664.086 1291.26,664.086 
  1293.43,664.086 1295.6,664.086 1297.76,664.086 1299.93,664.086 1302.1,664.086 1304.26,664.086 1306.43,664.086 1308.59,664.086 1310.76,664.086 1312.93,664.086 
  1315.09,664.086 1317.26,664.086 1319.43,664.086 1321.59,664.086 1323.76,664.086 1325.92,664.086 1328.09,664.086 1330.26,664.086 1332.42,664.086 1334.59,664.086 
  1336.76,664.086 1338.92,664.086 1341.09,664.086 1343.26,664.086 1345.42,664.086 1347.59,664.086 1349.75,664.086 1351.92,664.086 1354.09,664.086 1356.25,664.086 
  1358.42,664.086 1360.59,664.086 1362.75,664.086 1364.92,664.086 1367.08,664.086 1369.25,664.086 1371.42,664.086 1373.58,664.086 1375.75,664.086 1377.92,664.086 
  1380.08,664.086 1382.25,664.086 1384.42,664.086 1386.58,664.086 1388.75,664.086 1390.91,664.086 1393.08,664.086 1395.25,664.086 1397.41,664.086 1399.58,664.086 
  1401.75,664.086 1403.91,664.086 1406.08,664.086 1408.24,664.086 1410.41,664.086 1412.58,664.086 1414.74,664.086 1416.91,664.086 1419.08,664.086 1421.24,664.086 
  1423.41,664.086 1425.58,664.086 1427.74,664.086 1429.91,664.086 1432.07,664.086 1434.24,664.086 1436.41,664.086 1438.57,664.086 1440.74,664.086 1442.91,664.086 
  1445.07,664.086 1447.24,664.086 1449.4,664.086 1451.57,664.086 1453.74,664.086 1455.9,664.086 1458.07,664.086 1460.24,664.086 1462.4,664.086 1464.57,664.086 
  1466.74,664.086 1468.9,664.086 1471.07,664.086 1473.23,664.086 1475.4,664.086 1477.57,664.086 1479.73,664.086 1481.9,664.086 1484.07,664.086 1486.23,664.086 
  1488.4,664.086 1490.56,664.086 1492.73,664.086 1494.9,664.086 1497.06,664.086 1499.23,664.086 1501.4,664.086 1503.56,664.086 1505.73,664.086 1507.89,664.086 
  1510.06,664.086 1512.23,664.086 1514.39,664.086 1516.56,664.086 1518.73,664.086 1520.89,664.086 1523.06,664.086 1525.23,664.086 1527.39,664.086 1529.56,664.086 
  1531.72,664.086 1533.89,664.086 1536.06,664.086 1538.22,664.086 1540.39,664.086 1542.56,664.086 1544.72,664.086 1546.89,664.086 1549.05,664.086 1551.22,664.086 
  1553.39,664.086 1555.55,664.086 1557.72,664.086 1559.89,664.086 1562.05,664.086 1564.22,664.086 1566.39,664.086 1568.55,664.086 1570.72,664.086 1572.88,664.086 
  1575.05,664.086 1577.22,664.086 1579.38,664.086 1581.55,664.086 1583.72,664.086 1585.88,664.086 1588.05,664.086 1590.21,664.086 1592.38,664.086 1594.55,664.086 
  1596.71,664.086 1598.88,664.086 1601.05,664.086 1603.21,664.086 1605.38,664.086 1607.55,664.086 1609.71,664.086 1611.88,664.086 1614.04,664.086 1616.21,664.086 
  1618.38,664.086 1620.54,664.086 1622.71,664.086 1624.88,664.086 1627.04,664.086 1629.21,664.086 1631.37,664.086 1633.54,664.086 1635.71,664.086 1637.87,664.086 
  1640.04,664.086 1642.21,664.086 1644.37,664.086 1646.54,664.086 1648.71,664.086 1650.87,664.086 1653.04,664.086 1655.2,664.086 1657.37,664.086 1659.54,664.086 
  1661.7,664.086 1663.87,664.086 1666.04,664.086 1668.2,664.086 1670.37,664.086 1672.53,664.086 1674.7,664.086 1676.87,664.086 1679.03,664.086 1681.2,664.086 
  1683.37,664.086 1685.53,664.086 1687.7,664.086 1689.86,664.086 1692.03,664.086 1694.2,664.086 1696.36,664.086 1698.53,664.086 1700.7,664.086 1702.86,664.086 
  1705.03,664.086 1707.2,664.086 1709.36,664.086 1711.53,664.086 1713.69,664.086 1715.86,664.086 1718.03,664.086 1720.19,664.086 1722.36,664.086 1724.53,664.086 
  1726.69,664.086 1728.86,664.086 1731.02,664.086 1733.19,664.086 1735.36,664.086 1737.52,664.086 1739.69,664.086 1741.86,664.086 1744.02,664.086 1746.19,664.086 
  1748.36,664.086 1750.52,664.086 1752.69,664.086 1754.85,664.086 1757.02,664.086 1759.19,664.086 1761.35,664.086 1763.52,664.086 1765.69,664.086 1767.85,664.086 
  1770.02,664.086 1772.18,664.086 1774.35,664.086 1776.52,664.086 1778.68,664.086 1780.85,664.086 1783.02,664.086 1785.18,664.086 1787.35,664.086 1789.52,664.086 
  1791.68,664.086 1793.85,664.086 1796.01,664.086 1798.18,664.086 1800.35,664.086 1802.51,664.086 1804.68,664.086 1806.85,664.086 1809.01,664.086 1811.18,664.086 
  1813.34,664.086 1815.51,664.086 1817.68,664.086 1819.84,664.086 1822.01,664.086 1824.18,664.086 1826.34,664.086 1828.51,664.086 1830.68,664.086 1832.84,664.086 
  1835.01,664.086 1837.17,664.086 1839.34,664.086 1841.51,664.086 1843.67,664.086 1845.84,664.086 1848.01,664.086 1850.17,664.086 1852.34,664.086 1854.5,664.086 
  1856.67,664.086 1858.84,664.086 1861,664.086 1863.17,664.086 1865.34,664.086 1867.5,664.086 1869.67,664.086 1871.84,664.086 1874,664.086 1876.17,664.086 
  1878.33,664.086 1880.5,664.086 1882.67,664.086 1884.83,664.086 1887,664.086 1889.17,664.086 1891.33,664.086 1893.5,664.086 1895.66,664.086 1897.83,664.086 
  1900,664.086 1902.16,664.086 1904.33,664.086 1906.5,664.086 1908.66,664.086 1910.83,664.086 1912.99,664.086 1915.16,664.086 1917.33,664.086 1919.49,664.086 
  1921.66,664.086 1923.83,664.086 1925.99,664.086 1928.16,664.086 1930.33,664.086 1932.49,664.086 1934.66,664.086 1936.82,664.086 1938.99,664.086 1941.16,664.086 
  1943.32,664.086 1945.49,664.086 1947.66,664.086 1949.82,664.086 1951.99,664.086 1954.15,664.086 1956.32,664.086 1958.49,664.086 1960.65,664.086 1962.82,664.086 
  1964.99,664.086 1967.15,664.086 1969.32,664.086 1971.49,664.086 1973.65,664.086 1975.82,664.086 1977.98,664.086 1980.15,664.086 1982.32,664.086 1984.48,664.086 
  1986.65,664.086 1988.82,664.086 1990.98,664.086 1993.15,664.086 1995.31,664.086 1997.48,664.086 1999.65,664.086 2001.81,664.086 2003.98,664.086 2006.15,664.086 
  2008.31,664.086 2010.48,664.086 2012.65,664.086 2014.81,664.086 2016.98,664.086 2019.14,664.086 2021.31,664.086 2023.48,664.086 2025.64,664.086 2027.81,664.086 
  2029.98,664.086 2032.14,664.086 2034.31,664.086 2036.47,664.086 2038.64,664.086 2040.81,664.086 2042.97,664.086 2045.14,664.086 2047.31,664.086 2049.47,664.086 
  2051.64,664.086 2053.81,664.086 2055.97,664.086 2058.14,664.086 2060.3,664.086 2062.47,664.086 2064.64,664.086 2066.8,664.086 2068.97,664.086 2071.14,664.086 
  2073.3,664.086 2075.47,664.086 2077.63,664.086 2079.8,664.086 2081.97,664.086 2084.13,664.086 2086.3,664.086 2088.47,664.086 2090.63,664.086 2092.8,664.086 
  2094.96,664.086 2097.13,664.086 2099.3,664.086 2101.46,664.086 2103.63,664.086 2105.8,664.086 2107.96,664.086 2110.13,664.086 2112.3,664.086 2114.46,664.086 
  2116.63,664.086 2118.79,664.086 2120.96,664.086 2123.13,664.086 2125.29,664.086 2127.46,664.086 2129.63,664.086 2131.79,664.086 2133.96,664.086 2136.12,664.086 
  2138.29,664.086 2140.46,664.086 2142.62,664.086 2144.79,664.086 2146.96,664.086 2149.12,664.086 2151.29,664.086 2153.46,664.086 2155.62,664.086 2157.79,664.086 
  2159.95,664.086 2162.12,664.086 2164.29,664.086 2166.45,664.086 2168.62,664.086 2170.79,664.086 2172.95,664.086 2175.12,664.086 2177.28,664.086 2179.45,664.086 
  2181.62,664.086 2183.78,664.086 2185.95,664.086 2188.12,664.086 2190.28,664.086 2192.45,664.086 2194.62,664.086 2196.78,664.086 2198.95,664.086 2201.11,664.086 
  2203.28,664.086 2205.45,664.086 2207.61,664.086 2209.78,664.086 2211.95,664.086 2214.11,664.086 2216.28,664.086 2218.44,664.086 2220.61,664.086 2222.78,664.086 
  2224.94,664.086 2227.11,664.086 2229.28,664.086 2231.44,664.086 2233.61,664.086 2235.78,664.086 2237.94,664.086 2240.11,664.086 2242.27,664.086 2244.44,664.086 
  2246.61,664.086 2248.77,664.086 2250.94,664.086 2253.11,664.086 2255.27,664.086 2257.44,664.086 2259.6,664.086 2261.77,664.086 2263.94,664.086 2266.1,664.086 
  2268.27,664.086 2270.44,664.086 2272.6,664.086 2274.77,664.086 2276.94,664.086 2279.1,664.086 2281.27,664.086 2283.43,664.086 2285.6,664.086 2287.77,664.086 
  2289.93,664.086 2292.1,664.086 2294.27,664.086 2296.43,664.086 2298.6,664.086 2300.76,664.086 2302.93,664.086 2305.1,664.086 2307.26,664.086 2309.43,664.086 
  2311.6,664.086 2313.76,664.086 2315.93,664.086 2318.09,664.086 2320.26,664.086 2322.43,664.086 2324.59,664.086 2326.76,664.086 2328.93,664.086 2331.09,664.086 
  2333.26,664.086 2335.43,664.086 2337.59,664.086 2339.76,664.086 2341.92,664.086 2344.09,664.086 2346.26,664.086 2348.42,664.086 2350.59,664.086 2352.76,664.086 
  
  "/>
<path clip-path="url(#clip930)" d="
M1945.51 335.029 L2280.62 335.029 L2280.62 93.1086 L1945.51 93.1086  Z
  " fill="#ffffff" fill-rule="evenodd" fill-opacity="1"/>
<polyline clip-path="url(#clip930)" style="stroke:#000000; stroke-width:4; stroke-opacity:1; fill:none" points="
  1945.51,335.029 2280.62,335.029 2280.62,93.1086 1945.51,93.1086 1945.51,335.029 
  "/>
<polyline clip-path="url(#clip930)" style="stroke:#009af9; stroke-width:4; stroke-opacity:1; fill:none" points="
  1969.55,153.589 2113.83,153.589 
  "/>
<path clip-path="url(#clip930)" d="M 0 0 M2137.87 160.637 L2137.87 144.943 L2142.13 144.943 L2142.13 160.475 Q2142.13 164.156 2143.57 166.008 Q2145 167.836 2147.87 167.836 Q2151.32 167.836 2153.31 165.637 Q2155.33 163.438 2155.33 159.642 L2155.33 144.943 L2159.59 144.943 L2159.59 170.869 L2155.33 170.869 L2155.33 166.887 Q2153.78 169.248 2151.72 170.406 Q2149.68 171.54 2146.97 171.54 Q2142.5 171.54 2140.19 168.762 Q2137.87 165.984 2137.87 160.637 M2148.59 144.318 L2148.59 144.318 Z" fill="#000000" fill-rule="evenodd" fill-opacity="1" /><path clip-path="url(#clip930)" d="M 0 0 M2165.47 166.933 L2173.1 166.933 L2173.1 140.568 L2164.79 142.235 L2164.79 137.975 L2173.06 136.309 L2177.73 136.309 L2177.73 166.933 L2185.37 166.933 L2185.37 170.869 L2165.47 170.869 L2165.47 166.933 Z" fill="#000000" fill-rule="evenodd" fill-opacity="1" /><path clip-path="url(#clip930)" d="M 0 0 M2200.07 134.897 Q2196.97 140.221 2195.47 145.429 Q2193.96 150.637 2193.96 155.984 Q2193.96 161.332 2195.47 166.586 Q2196.99 171.818 2200.07 177.119 L2196.37 177.119 Q2192.9 171.679 2191.16 166.424 Q2189.45 161.17 2189.45 155.984 Q2189.45 150.822 2191.16 145.591 Q2192.87 140.36 2196.37 134.897 L2200.07 134.897 Z" fill="#000000" fill-rule="evenodd" fill-opacity="1" /><path clip-path="url(#clip930)" d="M 0 0 M2208.75 137.582 L2208.75 144.943 L2217.53 144.943 L2217.53 148.253 L2208.75 148.253 L2208.75 162.327 Q2208.75 165.498 2209.61 166.401 Q2210.49 167.304 2213.15 167.304 L2217.53 167.304 L2217.53 170.869 L2213.15 170.869 Q2208.22 170.869 2206.35 169.04 Q2204.47 167.188 2204.47 162.327 L2204.47 148.253 L2201.35 148.253 L2201.35 144.943 L2204.47 144.943 L2204.47 137.582 L2208.75 137.582 Z" fill="#000000" fill-rule="evenodd" fill-opacity="1" /><path clip-path="url(#clip930)" d="M 0 0 M2221.32 134.897 L2225.03 134.897 Q2228.5 140.36 2230.21 145.591 Q2231.95 150.822 2231.95 155.984 Q2231.95 161.17 2230.21 166.424 Q2228.5 171.679 2225.03 177.119 L2221.32 177.119 Q2224.4 171.818 2225.91 166.586 Q2227.43 161.332 2227.43 155.984 Q2227.43 150.637 2225.91 145.429 Q2224.4 140.221 2221.32 134.897 Z" fill="#000000" fill-rule="evenodd" fill-opacity="1" /><polyline clip-path="url(#clip930)" style="stroke:#e26f46; stroke-width:4; stroke-opacity:1; fill:none" points="
  1969.55,214.069 2113.83,214.069 
  "/>
<path clip-path="url(#clip930)" d="M 0 0 M2137.87 221.117 L2137.87 205.423 L2142.13 205.423 L2142.13 220.955 Q2142.13 224.636 2143.57 226.488 Q2145 228.316 2147.87 228.316 Q2151.32 228.316 2153.31 226.117 Q2155.33 223.918 2155.33 220.122 L2155.33 205.423 L2159.59 205.423 L2159.59 231.349 L2155.33 231.349 L2155.33 227.367 Q2153.78 229.728 2151.72 230.886 Q2149.68 232.02 2146.97 232.02 Q2142.5 232.02 2140.19 229.242 Q2137.87 226.464 2137.87 221.117 M2148.59 204.798 L2148.59 204.798 Z" fill="#000000" fill-rule="evenodd" fill-opacity="1" /><path clip-path="url(#clip930)" d="M 0 0 M2168.68 227.413 L2185 227.413 L2185 231.349 L2163.06 231.349 L2163.06 227.413 Q2165.72 224.659 2170.3 220.029 Q2174.91 215.376 2176.09 214.034 Q2178.34 211.511 2179.22 209.775 Q2180.12 208.015 2180.12 206.326 Q2180.12 203.571 2178.17 201.835 Q2176.25 200.099 2173.15 200.099 Q2170.95 200.099 2168.5 200.863 Q2166.07 201.627 2163.29 203.177 L2163.29 198.455 Q2166.11 197.321 2168.57 196.742 Q2171.02 196.164 2173.06 196.164 Q2178.43 196.164 2181.62 198.849 Q2184.82 201.534 2184.82 206.025 Q2184.82 208.154 2184.01 210.076 Q2183.22 211.974 2181.11 214.566 Q2180.54 215.238 2177.43 218.455 Q2174.33 221.65 2168.68 227.413 Z" fill="#000000" fill-rule="evenodd" fill-opacity="1" /><path clip-path="url(#clip930)" d="M 0 0 M2199.7 195.377 Q2196.6 200.701 2195.1 205.909 Q2193.59 211.117 2193.59 216.464 Q2193.59 221.812 2195.1 227.066 Q2196.62 232.298 2199.7 237.599 L2196 237.599 Q2192.53 232.159 2190.79 226.904 Q2189.08 221.65 2189.08 216.464 Q2189.08 211.302 2190.79 206.071 Q2192.5 200.84 2196 195.377 L2199.7 195.377 Z" fill="#000000" fill-rule="evenodd" fill-opacity="1" /><path clip-path="url(#clip930)" d="M 0 0 M2208.38 198.062 L2208.38 205.423 L2217.16 205.423 L2217.16 208.733 L2208.38 208.733 L2208.38 222.807 Q2208.38 225.978 2209.24 226.881 Q2210.12 227.784 2212.78 227.784 L2217.16 227.784 L2217.16 231.349 L2212.78 231.349 Q2207.85 231.349 2205.97 229.52 Q2204.1 227.668 2204.1 222.807 L2204.1 208.733 L2200.97 208.733 L2200.97 205.423 L2204.1 205.423 L2204.1 198.062 L2208.38 198.062 Z" fill="#000000" fill-rule="evenodd" fill-opacity="1" /><path clip-path="url(#clip930)" d="M 0 0 M2220.95 195.377 L2224.66 195.377 Q2228.13 200.84 2229.84 206.071 Q2231.58 211.302 2231.58 216.464 Q2231.58 221.65 2229.84 226.904 Q2228.13 232.159 2224.66 237.599 L2220.95 237.599 Q2224.03 232.298 2225.53 227.066 Q2227.06 221.812 2227.06 216.464 Q2227.06 211.117 2225.53 205.909 Q2224.03 200.701 2220.95 195.377 Z" fill="#000000" fill-rule="evenodd" fill-opacity="1" /><polyline clip-path="url(#clip930)" style="stroke:#3da44d; stroke-width:4; stroke-opacity:1; fill:none" points="
  1969.55,274.549 2113.83,274.549 
  "/>
<path clip-path="url(#clip930)" d="M 0 0 M2137.87 281.597 L2137.87 265.903 L2142.13 265.903 L2142.13 281.435 Q2142.13 285.116 2143.57 286.968 Q2145 288.796 2147.87 288.796 Q2151.32 288.796 2153.31 286.597 Q2155.33 284.398 2155.33 280.602 L2155.33 265.903 L2159.59 265.903 L2159.59 291.829 L2155.33 291.829 L2155.33 287.847 Q2153.78 290.208 2151.72 291.366 Q2149.68 292.5 2146.97 292.5 Q2142.5 292.5 2140.19 289.722 Q2137.87 286.944 2137.87 281.597 M2148.59 265.278 L2148.59 265.278 Z" fill="#000000" fill-rule="evenodd" fill-opacity="1" /><path clip-path="url(#clip930)" d="M 0 0 M2178.82 273.194 Q2182.18 273.912 2184.05 276.181 Q2185.95 278.449 2185.95 281.782 Q2185.95 286.898 2182.43 289.699 Q2178.91 292.5 2172.43 292.5 Q2170.26 292.5 2167.94 292.06 Q2165.65 291.643 2163.2 290.787 L2163.2 286.273 Q2165.14 287.407 2167.46 287.986 Q2169.77 288.565 2172.29 288.565 Q2176.69 288.565 2178.98 286.829 Q2181.3 285.093 2181.3 281.782 Q2181.3 278.727 2179.15 277.014 Q2177.02 275.278 2173.2 275.278 L2169.17 275.278 L2169.17 271.435 L2173.38 271.435 Q2176.83 271.435 2178.66 270.069 Q2180.49 268.681 2180.49 266.088 Q2180.49 263.426 2178.59 262.014 Q2176.72 260.579 2173.2 260.579 Q2171.28 260.579 2169.08 260.995 Q2166.88 261.412 2164.24 262.292 L2164.24 258.125 Q2166.9 257.384 2169.22 257.014 Q2171.55 256.644 2173.61 256.644 Q2178.94 256.644 2182.04 259.074 Q2185.14 261.482 2185.14 265.602 Q2185.14 268.472 2183.5 270.463 Q2181.85 272.431 2178.82 273.194 Z" fill="#000000" fill-rule="evenodd" fill-opacity="1" /><path clip-path="url(#clip930)" d="M 0 0 M2200.65 255.857 Q2197.55 261.181 2196.04 266.389 Q2194.54 271.597 2194.54 276.944 Q2194.54 282.292 2196.04 287.546 Q2197.57 292.778 2200.65 298.079 L2196.95 298.079 Q2193.47 292.639 2191.74 287.384 Q2190.03 282.13 2190.03 276.944 Q2190.03 271.782 2191.74 266.551 Q2193.45 261.32 2196.95 255.857 L2200.65 255.857 Z" fill="#000000" fill-rule="evenodd" fill-opacity="1" /><path clip-path="url(#clip930)" d="M 0 0 M2209.33 258.542 L2209.33 265.903 L2218.1 265.903 L2218.1 269.213 L2209.33 269.213 L2209.33 283.287 Q2209.33 286.458 2210.19 287.361 Q2211.07 288.264 2213.73 288.264 L2218.1 288.264 L2218.1 291.829 L2213.73 291.829 Q2208.8 291.829 2206.92 290 Q2205.05 288.148 2205.05 283.287 L2205.05 269.213 L2201.92 269.213 L2201.92 265.903 L2205.05 265.903 L2205.05 258.542 L2209.33 258.542 Z" fill="#000000" fill-rule="evenodd" fill-opacity="1" /><path clip-path="url(#clip930)" d="M 0 0 M2221.9 255.857 L2225.6 255.857 Q2229.08 261.32 2230.79 266.551 Q2232.53 271.782 2232.53 276.944 Q2232.53 282.13 2230.79 287.384 Q2229.08 292.639 2225.6 298.079 L2221.9 298.079 Q2224.98 292.778 2226.48 287.546 Q2228.01 282.292 2228.01 276.944 Q2228.01 271.597 2226.48 266.389 Q2224.98 261.181 2221.9 255.857 Z" fill="#000000" fill-rule="evenodd" fill-opacity="1" /></svg>
